#N canvas 27 28 1825 972 12;
#X obj 31 22 r \$0-to-controller;
#X obj 31 46 korg.nanokontrol2;
#A saved 0 0 0 0 0 0 0 0 127 127 127 127 127 127 127 127 0 0 0 0 0 0 0 0 0 0 0 0 0 0 0 0 0 0 0 0 0 0 0 0;
#X floatatom 999 772 0 0 127 0 It\ sends\ data\ to\ parameter\ 1 - - 0;
#X msg 999 795 param_set 1 \$1;
#X obj 1062 942 s \$0-to-controller;
#X msg 1062 828 param_label 1 Param1;
#X text 848 828 It adds a label to parameter 1;
#X text 876 902 It removes the label of parameter 1;
#X obj 1126 875 loadbang;
#X obj 584 718 cnv 19 150 35 empty empty Usage 45 17 0 18 #dfdfdf #404040 0;
#X obj 44 848 cnv 19 100 25 empty empty Send 30 14 0 15 #dfdfdf #404040 0;
#X obj 694 848 cnv 19 100 25 empty empty Receive 15 14 0 15 #dfdfdf #404040 0;
#X obj 404 825 r \$0-from-controller;
#X obj 404 849 route 1;
#X floatatom 404 873 0 0 0 0 It\ receives\ data\ from\ parameter\ 1 - - 0;
#X msg 1126 902 param_label 1 \ ;
#X obj 34 417 cnv 19 735 76 empty empty Korg\ Nanokontrol2\ [korg.nanokontrol2] 5 38 0 32 #bbbbbb #404040 0;
#X text 46 504 This patch allows to control parameters with a friendly GUI similar to the hardware device which makes the communication faster and plug and play instead of having to design a template for it using [midi objects].;
#X text 46 574 It has to be used in conjuction with a patch of akai midmix editor which is also provided among this template. it can send and receive MIDI data from and to the parent patch.;
#X text 46 634 Parameters lableled with their number \, send and receive MIDI data directly to and from the patch respectively \, on the hand \, trasnport parameter don't to that \, they communicate with the parent patch through a transport system so you have to use the outlets of the abstraction.;
#X obj 800 406 cnv 19 450 186 empty empty empty 20 12 0 12 #e0e0e0 #404040 0;
#X text 969 467 out1: start (0 \, 1);
#X text 969 487 out2: pulse (sixteenth note in ms);
#X text 969 507 out3: counter;
#X text 969 527 out4: counter with shuffle;
#X text 969 547 out5: inspector (list);
#X text 969 567 out6: from controller (send midi to parent patch);
#X text 969 417 in1: to controller (receive midi from parent patch);
#X text 969 437 in2/arg1: port number (allocate port from preferences);
#X obj 1524 385 s \$0-from-controller;
#X obj 31 383 s \$0-start;
#X obj 329 383 s \$0-pulse;
#X obj 628 383 s \$0-counter;
#X obj 926 383 s \$0-counter-shuffle;
#X obj 1225 383 s \$0-inspector;
#X obj 1390 416 cnv 19 400 535 empty empty empty 20 12 0 12 #e0e0e0 #404040 0;
#X obj 1408 422 r \$0-start;
#X floatatom 1408 446 0 0 0 1 Play - - 0;
#X floatatom 1408 506 0 0 0 1 Time\ between\ each\ sixteenth\ note\ (grid\ side\ in\ ms) - - 0;
#X obj 1408 482 r \$0-pulse;
#X obj 1407 537 r \$0-counter;
#X floatatom 1407 611 0 0 0 1 Grid\ counter\ (16th_note) - - 0;
#X obj 1407 561 mod 16;
#X obj 1407 585 + 1;
#X floatatom 1407 721 0 0 0 1 Counter\ with\ shuffle\ (fix\ value\ at\ 0.33) - - 0;
#X obj 1407 671 mod 16;
#X obj 1407 695 + 1;
#X obj 1407 647 r \$0-counter-shuffle;
#X obj 1407 773 unpack f f f;
#X obj 1407 819 s \$0-bar;
#X obj 1447 870 s \$0-quarter_bar;
#X obj 1488 921 s \$0-sixteenth_bar;
#X obj 1407 748 r \$0-inspector;
#X floatatom 1407 796 0 0 0 0 - - - 0;
#X floatatom 1447 846 0 0 0 0 - - - 0;
#X floatatom 1488 896 0 0 0 0 - - - 0;
#X text 25 944 NOTE! This abstraction needs ELSE externals library;
#X text 587 947 https://github.com/DSBhproject;
#X text 44 723 This abstractions count with a built-in savestate system but labels have to be saved by loadbangering messages from the parent patch.;
#X obj 1554 46 loadbang;
#X obj 1554 70 del 100;
#X obj 1554 119 text get korg.nk2_lastport;
#X msg 1554 94 0;
#X floatatom 1554 143 5 0 0 1 get\ port\ nº\ from\ main\ abs - - 0;
#X text 968 617 This abstraction supports multiple independent instances within a parent patch. Each instance retains its own settings thanks to an internal savestate mechanism. However \, if more than one instance is active when launching the help patch \, conflicts may occur—such as incorrect port assignment or unexpected behavior. For best results \, it's recommended to use a single instance when accessing the help file.;
#X text 486 545 // UNASSIGNED BUTTONS The "Loop" \, "Backward" \, and "Forward" buttons are currently unassigned. When pressed \, they flash yellow to indicate their availability for future functionality.;
#X obj 1631 537 r \$0-counter;
#X obj 1631 585 + 1;
#X obj 1631 609 sel 1;
#X obj 1631 633 bng 19 250 50 0 empty empty Get\ clock 28 10 0 12 #fcfcfc #000000 #000000;
#X obj 1631 561 mod 4;
#X text 1571 562 4th_note;
#X connect 0 0 1 0;
#X connect 1 0 30 0;
#X connect 1 1 31 0;
#X connect 1 2 32 0;
#X connect 1 3 33 0;
#X connect 1 4 34 0;
#X connect 1 5 29 0;
#X connect 2 0 3 0;
#X connect 3 0 4 0;
#X connect 5 0 4 0;
#X connect 8 0 15 0;
#X connect 12 0 13 0;
#X connect 13 0 14 0;
#X connect 15 0 4 0;
#X connect 36 0 37 0;
#X connect 39 0 38 0;
#X connect 40 0 42 0;
#X connect 42 0 43 0;
#X connect 43 0 41 0;
#X connect 45 0 46 0;
#X connect 46 0 44 0;
#X connect 47 0 45 0;
#X connect 48 0 53 0;
#X connect 48 1 54 0;
#X connect 48 2 55 0;
#X connect 52 0 48 0;
#X connect 53 0 49 0;
#X connect 54 0 50 0;
#X connect 55 0 51 0;
#X connect 59 0 60 0;
#X connect 60 0 62 0;
#X connect 61 0 63 0;
#X connect 62 0 61 0;
#X connect 63 0 1 1;
#X connect 66 0 70 0;
#X connect 67 0 68 0;
#X connect 68 0 69 0;
#X connect 70 0 67 0;
