#N canvas 350 274 1727 618 12;
#X obj 2 2 cnv 15 1500 330 empty \$0-background-r empty 20 12 0 12 #404040 #dfdfdf 0;
#X obj 109 19 cnv 5 1 1 empty \$0-txt-r KORG 0 0 0 24 #404040 #dfdfdf 0;
#X obj 47 49 cnv 5 1 1 empty \$0-txt-r nanoKONTROL2 0 0 0 21 #404040 #dfdfdf 0;
#X obj 382 130 vsl 30 128 0 127 0 1 \$0-vsl1-s \$0-vsl1-r 9 12 -13 0 12 #9f9f9f #9f9f9f #dfdfdf 12700 1;
#X obj 383 129 cnv 1 28 1 empty \$0-vsl1-background-r empty 20 12 0 12 #bbbbbb #404040 0;
#X obj 383 129 cnv 1 28 1 empty \$0-vsl1-fix-r empty 20 12 0 12 #a0a0a0 #404040 0;
#X obj 383 257 cnv 1 1 3 empty \$0-vsl1-fix-down-r empty 20 12 0 12 #a0a0a0 #404040 0;
#X obj 526 130 vsl 30 128 0 127 0 1 \$0-vsl2-s \$0-vsl2-r 10 9 -13 0 12 #9f9f9f #9f9f9f #dfdfdf 12700 1;
#X obj 527 129 cnv 1 28 1 empty \$0-vsl2-background-r empty 20 12 0 12 #bbbbbb #404040 0;
#X obj 527 129 cnv 1 28 1 empty \$0-vsl2-fix-r empty 20 12 0 12 #a0a0a0 #404040 0;
#X obj 527 257 cnv 1 1 3 empty \$0-vsl2-fix-down-r empty 20 12 0 12 #a0a0a0 #404040 0;
#X obj 668 130 vsl 30 128 0 127 0 1 \$0-vsl3-s \$0-vsl3-r 11 9 -13 0 12 #9f9f9f #9f9f9f #dfdfdf 12700 1;
#X obj 669 129 cnv 1 28 1 empty \$0-vsl3-background-r empty 20 12 0 12 #bbbbbb #404040 0;
#X obj 669 129 cnv 1 28 1 empty \$0-vsl3-fix-r empty 20 12 0 12 #a0a0a0 #404040 0;
#X obj 669 257 cnv 1 1 3 empty \$0-vsl3-fix-down-r empty 20 12 0 12 #a0a0a0 #404040 0;
#X obj 812 130 vsl 30 128 0 127 0 1 \$0-vsl4-s \$0-vsl4-r 12 9 -13 0 12 #9f9f9f #9f9f9f #dfdfdf 12700 1;
#X obj 813 129 cnv 1 28 1 empty \$0-vsl4-background-r empty 20 12 0 12 #bbbbbb #404040 0;
#X obj 813 129 cnv 1 28 1 empty \$0-vsl4-fix-r empty 20 12 0 12 #a0a0a0 #404040 0;
#X obj 813 257 cnv 1 1 3 empty \$0-vsl4-fix-down-r empty 20 12 0 12 #a0a0a0 #404040 0;
#X obj 956 130 vsl 30 128 0 127 0 1 \$0-vsl5-s \$0-vsl5-r 13 9 -13 0 12 #9f9f9f #9f9f9f #dfdfdf 12700 1;
#X obj 957 129 cnv 1 28 1 empty \$0-vsl5-background-r empty 20 12 0 12 #bbbbbb #404040 0;
#X obj 957 129 cnv 1 28 1 empty \$0-vsl5-fix-r empty 20 12 0 12 #a0a0a0 #404040 0;
#X obj 957 257 cnv 1 1 3 empty \$0-vsl5-fix-down-r empty 20 12 0 12 #a0a0a0 #404040 0;
#X obj 1100 130 vsl 30 128 0 127 0 1 \$0-vsl6-s \$0-vsl6-r 14 9 -13 0 12 #9f9f9f #9f9f9f #dfdfdf 12700 1;
#X obj 1101 129 cnv 1 28 1 empty \$0-vsl6-background-r empty 20 12 0 12 #bbbbbb #404040 0;
#X obj 1101 129 cnv 1 28 1 empty \$0-vsl6-fix-r empty 20 12 0 12 #a0a0a0 #404040 0;
#X obj 1101 257 cnv 1 1 3 empty \$0-vsl6-fix-down-r empty 20 12 0 12 #a0a0a0 #404040 0;
#X obj 1246 130 vsl 30 128 0 127 0 1 \$0-vsl7-s \$0-vsl7-r 15 9 -13 0 12 #9f9f9f #9f9f9f #dfdfdf 12700 1;
#X obj 1247 129 cnv 1 28 1 empty \$0-vsl7-background-r empty 20 12 0 12 #bbbbbb #404040 0;
#X obj 1247 129 cnv 1 28 1 empty \$0-vsl7-fix-r empty 20 12 0 12 #a0a0a0 #404040 0;
#X obj 1247 257 cnv 1 1 3 empty \$0-vsl7-fix-down-r empty 20 12 0 12 #a0a0a0 #404040 0;
#X obj 1388 130 vsl 30 128 0 127 0 1 \$0-vsl8-s \$0-vsl8-r 16 9 -13 0 12 #9f9f9f #9f9f9f #dfdfdf 12700 1;
#X obj 1389 129 cnv 1 28 1 empty \$0-vsl8-background-r empty 20 12 0 12 #bbbbbb #404040 0;
#X obj 1389 129 cnv 1 28 1 empty \$0-vsl8-fix-r empty 20 12 0 12 #a0a0a0 #404040 0;
#X obj 1389 257 cnv 1 1 3 empty \$0-vsl8-fix-down-r empty 20 12 0 12 #a0a0a0 #404040 0;
#X obj 336 140 tgl 25 1 \$0-tgl1-s-s \$0-tgl1-s-r S 7 13 0 21 #e0e0e0 #e0e0e0 #404040 0 1;
#X obj 480 140 tgl 25 1 \$0-tgl2-s-s \$0-tgl2-s-r S 7 13 0 21 #e0e0e0 #e0e0e0 #404040 0 1;
#X obj 624 140 tgl 25 1 \$0-tgl3-s-s \$0-tgl3-s-r S 7 13 0 21 #e0e0e0 #e0e0e0 #404040 0 1;
#X obj 768 140 tgl 25 1 \$0-tgl4-s-s \$0-tgl4-s-r S 7 13 0 21 #e0e0e0 #e0e0e0 #404040 0 1;
#X obj 912 140 tgl 25 1 \$0-tgl5-s-s \$0-tgl5-s-r S 7 13 0 21 #e0e0e0 #e0e0e0 #404040 0 1;
#X obj 1056 140 tgl 25 1 \$0-tgl6-s-s \$0-tgl6-s-r S 7 13 0 21 #e0e0e0 #e0e0e0 #404040 0 1;
#X obj 1200 140 tgl 25 1 \$0-tgl7-s-s \$0-tgl7-s-r S 7 13 0 21 #e0e0e0 #e0e0e0 #404040 0 1;
#X obj 1344 140 tgl 25 1 \$0-tgl8-s-s \$0-tgl8-s-r S 7 13 0 21 #e0e0e0 #e0e0e0 #404040 0 1;
#X obj 336 180 tgl 25 1 \$0-tgl1-m-s \$0-tgl1-m-r M 7 13 0 21 #e0e0e0 #e0e0e0 #404040 0 1;
#X obj 480 180 tgl 25 1 \$0-tgl2-m-s \$0-tgl2-m-r M 7 13 0 21 #e0e0e0 #e0e0e0 #404040 0 1;
#X obj 624 180 tgl 25 1 \$0-tgl3-m-s \$0-tgl3-m-r M 7 13 0 21 #e0e0e0 #e0e0e0 #404040 0 1;
#X obj 768 180 tgl 25 1 \$0-tgl4-m-s \$0-tgl4-m-r M 7 13 0 21 #e0e0e0 #e0e0e0 #404040 0 1;
#X obj 912 180 tgl 25 1 \$0-tgl5-m-s \$0-tgl5-m-r M 7 13 0 21 #e0e0e0 #e0e0e0 #404040 0 1;
#X obj 1056 180 tgl 25 1 \$0-tgl6-m-s \$0-tgl6-m-r M 7 13 0 21 #e0e0e0 #e0e0e0 #404040 0 1;
#X obj 1200 180 tgl 25 1 \$0-tgl7-m-s \$0-tgl7-m-r M 7 13 0 21 #e0e0e0 #e0e0e0 #404040 0 1;
#X obj 1344 180 tgl 25 1 \$0-tgl8-m-s \$0-tgl8-m-r M 7 13 0 21 #e0e0e0 #e0e0e0 #404040 0 1;
#X obj 336 220 tgl 25 1 \$0-tgl1-r-s \$0-tgl1-r-r R 7 13 0 21 #e0e0e0 #e0e0e0 #404040 0 1;
#X obj 480 220 tgl 25 1 \$0-tgl2-r-s \$0-tgl2-r-r R 7 13 0 21 #e0e0e0 #e0e0e0 #404040 0 1;
#X obj 624 220 tgl 25 1 \$0-tgl3-r-s \$0-tgl3-r-r R 7 13 0 21 #e0e0e0 #e0e0e0 #404040 0 1;
#X obj 768 220 tgl 25 1 \$0-tgl4-r-s \$0-tgl4-r-r R 7 13 0 21 #e0e0e0 #e0e0e0 #404040 0 1;
#X obj 912 220 tgl 25 1 \$0-tgl5-r-s \$0-tgl5-r-r R 7 13 0 21 #e0e0e0 #e0e0e0 #404040 0 1;
#X obj 1056 220 tgl 25 1 \$0-tgl6-r-s \$0-tgl6-r-r R 7 13 0 21 #e0e0e0 #e0e0e0 #404040 0 1;
#X obj 1200 220 tgl 25 1 \$0-tgl7-r-s \$0-tgl7-r-r R 7 13 0 21 #e0e0e0 #e0e0e0 #404040 0 1;
#X obj 1344 220 tgl 25 1 \$0-tgl8-r-s \$0-tgl8-r-r R 7 13 0 21 #e0e0e0 #e0e0e0 #404040 0 1;
#X obj 378 36 else/knob 36 0 127 0 0 \$0-knb1-s \$0-knb1-r #dfdfdf #7c7c7c #404040 0 0 0 0 0 320 0 0 0 empty empty 0 0 0 0 0 0 0 0;
#X obj 522 36 else/knob 36 0 127 0 0 \$0-knb2-s \$0-knb2-r #dfdfdf #7c7c7c #404040 0 0 0 0 0 320 0 0 0 empty empty 0 0 0 0 0 0 0 0;
#X obj 666 36 else/knob 36 0 127 0 0 \$0-knb3-s \$0-knb3-r #dfdfdf #7c7c7c #404040 0 0 0 0 0 320 0 0 0 empty empty 0 0 0 0 0 0 0 0;
#X obj 810 36 else/knob 36 0 127 0 0 \$0-knb4-s \$0-knb4-r #dfdfdf #7c7c7c #404040 0 0 0 0 0 320 0 0 0 empty empty 0 0 0 0 0 0 0 0;
#X obj 954 36 else/knob 36 0 127 0 0 \$0-knb5-s \$0-knb5-r #dfdfdf #7c7c7c #404040 0 0 0 0 0 320 0 0 0 empty empty 0 0 0 0 0 0 0 0;
#X obj 1098 36 else/knob 36 0 127 0 0 \$0-knb6-s \$0-knb6-r #dfdfdf #7c7c7c #404040 0 0 0 0 0 320 0 0 0 empty empty 0 0 0 0 0 0 0 0;
#X obj 1242 36 else/knob 36 0 127 0 0 \$0-knb7-s \$0-knb7-r #dfdfdf #7c7c7c #404040 0 0 0 0 0 320 0 0 0 empty empty 0 0 0 0 0 0 0 0;
#X obj 1386 36 else/knob 36 0 127 0 0 \$0-knb8-s \$0-knb8-r #dfdfdf #7c7c7c #404040 0 0 0 0 0 320 0 0 0 empty empty 0 0 0 0 0 0 0 0;
#X obj 360 82 cnv 15 75 19 empty \$0-knb1-label-r empty 0 10 0 14 #dfdfdf #404040 0;
#X obj 176 258 tgl 35 0 \$0-play-s \$0-play-r ► 4 13 0 48 #e0e0e0 #e0e0e0 #404040 0 1;
#X obj 126 258 tgl 35 0 \$0-stop-s \$0-stop-r ▬ 3 13 0 48 #fc2828 #fc2828 #e0e0e0 0 1;
#X obj 78 258 tgl 35 0 \$0-forward-s \$0-forward-r ►► 4 16 0 24 #e0e0e0 #e0e0e0 #404040 0 1;
#X obj 28 258 tgl 35 0 \$0-backward-s \$0-backward-r ◄◄ 2 16 0 24 #e0e0e0 #e0e0e0 #404040 0 1;
#X obj 224 259 tgl 35 0 \$0-url-s \$0-url-r ☻ 8 19 0 32 #e0e0e0 #e0e0e0 #404040 0 1;
#X obj 25 247 cnv 5 1 1 empty empty Bckwrd 0 0 0 12 #404040 #dfdfdf 0;
#X obj 77 247 cnv 5 1 1 empty empty Frwrd 0 0 0 12 #404040 #dfdfdf 0;
#X obj 129 247 cnv 5 1 1 empty empty Stop 0 0 0 12 #404040 #dfdfdf 0;
#X obj 180 247 cnv 5 1 1 empty empty Play 0 0 0 12 #404040 #dfdfdf 0;
#X obj 229 247 cnv 5 1 1 empty empty URL 3 0 0 12 #404040 #dfdfdf 0;
#X obj 27 100 cnv 5 1 1 empty empty Track\ (Tempo) 0 0 0 12 #404040 #dfdfdf 0;
#X obj 77 112 tgl 35 0 \$0-track-forward-s \$0-track-forward-r ►► 4 16 0 24 #e0e0e0 #e0e0e0 #404040 0 1;
#X obj 27 112 tgl 35 0 \$0-track-backward-s \$0-track-backward-r ◄◄ 2 16 0 24 #e0e0e0 #e0e0e0 #404040 0 1;
#X obj 28 186 tgl 35 1 \$0-loop-s \$0-loop-r Loop 3 18 0 12 #e0e0e0 #e0e0e0 #404040 0 1;
#X obj 224 186 tgl 35 0 \$0-marker-forward-s \$0-marker-forward-r ► 10 16 0 32 #e0e0e0 #e0e0e0 #404040 0 1;
#X obj 176 186 tgl 35 0 \$0-marker-backward-s \$0-marker-backward-r ◄ 7 16 0 32 #e0e0e0 #e0e0e0 #404040 0 1;
#X obj 126 186 tgl 35 0 \$0-set-s \$0-set-r Set 7 19 0 12 #e0e0e0 #e0e0e0 #404040 0 1;
#X obj 130 169 cnv 5 1 1 empty empty ______Marker______ 0 0 0 12 #404040 #dfdfdf 0;
#N canvas 0 98 1440 754 midi 0;
#X obj 31 592 s \$0-vsl1-r;
#X obj 51 565 s \$0-vsl2-r;
#X obj 72 537 s \$0-vsl3-r;
#X obj 93 511 s \$0-vsl4-r;
#X obj 113 484 s \$0-vsl5-r;
#X obj 134 458 s \$0-vsl6-r;
#X obj 155 432 s \$0-vsl7-r;
#X obj 175 405 s \$0-vsl8-r;
#X obj 341 405 s \$0-knb8-r;
#X obj 320 432 s \$0-knb7-r;
#X obj 299 457 s \$0-knb6-r;
#X obj 279 484 s \$0-knb5-r;
#X obj 258 511 s \$0-knb4-r;
#X obj 237 537 s \$0-knb3-r;
#X obj 217 565 s \$0-knb2-r;
#X obj 196 592 s \$0-knb1-r;
#X obj 506 405 s \$0-tgl8-s-r;
#X obj 485 432 s \$0-tgl7-s-r;
#X obj 465 457 s \$0-tgl6-s-r;
#X obj 444 484 s \$0-tgl5-s-r;
#X obj 423 511 s \$0-tgl4-s-r;
#X obj 403 537 s \$0-tgl3-s-r;
#X obj 382 565 s \$0-tgl2-s-r;
#X obj 361 591 s \$0-tgl1-s-r;
#X obj 671 405 s \$0-tgl8-m-r;
#X obj 651 432 s \$0-tgl7-m-r;
#X obj 630 457 s \$0-tgl6-m-r;
#X obj 609 484 s \$0-tgl5-m-r;
#X obj 589 511 s \$0-tgl4-m-r;
#X obj 568 537 s \$0-tgl3-m-r;
#X obj 547 565 s \$0-tgl2-m-r;
#X obj 526 591 s \$0-tgl1-m-r;
#X obj 865 406 s \$0-tgl8-r-r;
#X obj 816 432 s \$0-tgl7-r-r;
#X obj 795 457 s \$0-tgl6-r-r;
#X obj 775 484 s \$0-tgl5-r-r;
#X obj 754 511 s \$0-tgl4-r-r;
#X obj 733 537 s \$0-tgl3-r-r;
#X obj 713 565 s \$0-tgl2-r-r;
#X obj 691 591 s \$0-tgl1-r-r;
#X obj 1048 470 s \$0-play-r;
#X obj 1015 496 s \$0-stop-r;
#X obj 1002 523 s \$0-forward-r;
#X obj 981 549 s \$0-backward-r;
#X obj 961 577 s \$0-marker-forward-r;
#X obj 940 605 s \$0-marker-backward-r;
#X obj 899 656 s \$0-loop-r;
#X obj 878 678 s \$0-track-forward-r;
#X obj 857 706 s \$0-track-backward-r;
#X obj 919 632 s \$0-set-r;
#X obj 1003 11 r \$0-value;
#X obj 1003 321 ctlout;
#X floatatom 1003 35 5 0 0 0 - - - 0;
#X obj 1022 58 r \$0-control;
#X floatatom 1042 227 5 0 0 0 - - - 0;
#X obj 1042 203 r \$0-channel/port;
#X msg 1048 437 0;
#X msg 1015 437 1;
#X msg 1107 438 0;
#X msg 1077 437 1;
#X obj 1023 405 t b;
#X obj 1080 406 t b;
#X obj 1022 106 t f f, f 6;
#X floatatom 1022 82 5 0 0 0 - - - 0;
#X obj 1003 174 spigot;
#X obj 1061 138 expr if ($f1 == 41 | $f1 == 42 | $f1 == 45 \, 0 \, 1);
#X text 907 322 LED's receive;
#X obj 371 29 inlet port_number;
#X obj 371 103 * 16;
#X obj 371 127 - 15;
#X obj 371 60 t f f, f 18;
#X obj 455 136 spigot;
#X obj 494 112 > 0;
#X obj 556 157 == 0;
#X obj 556 181 sel 1;
#X obj 455 304 list trim;
#X obj 455 333 print -n;
#X msg 556 215 Korg\ Nanokontrol2\ not\ connected.\ Define\ port\ number., f 39;
#X obj 455 280 list prepend Korg Nanokontrol2 connected to port;
#X obj 31 178 ctlin, f 40;
#X floatatom 31 301 4 0 127 1 Value - - 0;
#X floatatom 169 276 4 0 127 1 Nº\ Control - - 0;
#X obj 31 343 list prepend, f 20;
#X obj 31 247 spigot, f 10;
#X obj 31 202 pipe 1;
#X obj 170 247 spigot, f 10;
#X obj 170 201 pipe 1;
#X text 34 147 MIDI CC messages;
#X obj 98 220 ==;
#X obj 237 220 ==;
#X floatatom 308 202 0 0 0 0 Channel/Port - - 12;
#X obj 1042 250 expr if ($f1 == $f2 \, $f1 \, 0);
#X obj 308 225 s \$0-channel/port;
#X obj 292 319 s \$0-value;
#X obj 313 294 s \$0-control;
#X obj 371 171 s \$0-port_number;
#X obj 1235 226 r \$0-port_number;
#X obj 31 372 route 9 10 11 12 13 14 15 16 1 2 3 4 5 6 7 8 17 18 19 20 21 22 23 24 25 26 27 28 29 30 31 32 33 34 35 36 37 38 39 40 58 59 46 60 61 62 43 44 42 41 45, f 163;
#X obj 1042 277 t f f;
#X obj 1074 303 expr if ($f1 != 0 \, $f1 \, 0);
#X obj 1074 327 s \$0-port_number(filtered);
#X obj 1152 410 sel 1;
#X obj 1152 434 t b b, f 12;
#X obj 1152 458 del 250;
#X msg 1152 482 0;
#X msg 1233 459 1;
#X obj 1152 515 s \$0-url-r;
#X msg 548 93 set \$1;
#X obj 548 121 text define korg.nk2_lastport;
#X connect 50 0 52 0;
#X connect 52 0 64 0;
#X connect 53 0 63 0;
#X connect 54 0 91 0;
#X connect 55 0 54 0;
#X connect 56 0 40 0;
#X connect 57 0 41 0;
#X connect 58 0 41 0;
#X connect 59 0 40 0;
#X connect 60 0 56 0;
#X connect 60 0 57 0;
#X connect 61 0 58 0;
#X connect 61 0 59 0;
#X connect 62 0 51 1;
#X connect 62 1 65 0;
#X connect 63 0 62 0;
#X connect 64 0 51 0;
#X connect 65 0 64 1;
#X connect 67 0 70 0;
#X connect 68 0 69 0;
#X connect 69 0 88 1;
#X connect 69 0 89 1;
#X connect 69 0 95 0;
#X connect 70 0 68 0;
#X connect 70 0 71 0;
#X connect 70 1 72 0;
#X connect 70 1 73 0;
#X connect 70 1 107 0;
#X connect 71 0 78 0;
#X connect 72 0 71 1;
#X connect 73 0 74 0;
#X connect 74 0 77 0;
#X connect 75 0 76 0;
#X connect 77 0 76 0;
#X connect 78 0 75 0;
#X connect 79 0 84 0;
#X connect 79 1 86 0;
#X connect 79 2 90 0;
#X connect 80 0 82 0;
#X connect 80 0 93 0;
#X connect 81 0 82 1;
#X connect 81 0 94 0;
#X connect 82 0 97 0;
#X connect 83 0 80 0;
#X connect 84 0 83 0;
#X connect 85 0 81 0;
#X connect 86 0 85 0;
#X connect 88 0 83 1;
#X connect 89 0 85 1;
#X connect 90 0 89 0;
#X connect 90 0 88 0;
#X connect 90 0 92 0;
#X connect 91 0 98 0;
#X connect 96 0 91 1;
#X connect 97 0 0 0;
#X connect 97 1 1 0;
#X connect 97 2 2 0;
#X connect 97 3 3 0;
#X connect 97 4 4 0;
#X connect 97 5 5 0;
#X connect 97 6 6 0;
#X connect 97 7 7 0;
#X connect 97 8 15 0;
#X connect 97 9 14 0;
#X connect 97 10 13 0;
#X connect 97 11 12 0;
#X connect 97 12 11 0;
#X connect 97 13 10 0;
#X connect 97 14 9 0;
#X connect 97 15 8 0;
#X connect 97 16 23 0;
#X connect 97 17 22 0;
#X connect 97 18 21 0;
#X connect 97 19 20 0;
#X connect 97 20 19 0;
#X connect 97 21 18 0;
#X connect 97 22 17 0;
#X connect 97 23 16 0;
#X connect 97 24 31 0;
#X connect 97 25 30 0;
#X connect 97 26 29 0;
#X connect 97 27 28 0;
#X connect 97 28 27 0;
#X connect 97 29 26 0;
#X connect 97 30 25 0;
#X connect 97 31 24 0;
#X connect 97 32 39 0;
#X connect 97 33 38 0;
#X connect 97 34 37 0;
#X connect 97 35 36 0;
#X connect 97 36 35 0;
#X connect 97 37 34 0;
#X connect 97 38 33 0;
#X connect 97 39 32 0;
#X connect 97 40 48 0;
#X connect 97 41 47 0;
#X connect 97 42 46 0;
#X connect 97 43 49 0;
#X connect 97 44 45 0;
#X connect 97 45 44 0;
#X connect 97 46 43 0;
#X connect 97 47 42 0;
#X connect 97 48 60 0;
#X connect 97 49 61 0;
#X connect 97 50 101 0;
#X connect 98 0 51 2;
#X connect 98 1 99 0;
#X connect 99 0 100 0;
#X connect 101 0 102 0;
#X connect 102 0 103 0;
#X connect 102 1 105 0;
#X connect 103 0 104 0;
#X connect 104 0 106 0;
#X connect 105 0 106 0;
#X connect 107 0 108 0;
#X restore 1532 211 pd midi;
#N canvas 29 70 790 967 timeline 0;
#X obj 358 47 r \$0-mark-forward;
#X obj 491 44 r \$0-mark-backward;
#X floatatom 358 192 0 0 0 0 Bar\ Start - - 0;
#X obj 358 627 unpack f f f;
#X obj 137 234 f, f 5;
#X obj 137 202 t b f;
#X obj 137 173 t f b;
#X obj 358 71 sel 1;
#X obj 491 66 sel 1;
#X obj 358 95 f;
#X obj 396 95 + 1;
#X floatatom 358 119 5 0 0 0 - - - 0;
#X obj 491 95 f;
#X floatatom 491 122 5 0 0 0 - - - 0;
#X obj 529 96 - 1;
#X obj 358 164 +;
#X obj 491 145 t b f;
#X text 291 629 Inspector;
#X obj 269 19 r \$0-set;
#X obj 269 43 sel 1;
#X msg 269 76 0;
#X msg 324 76 1;
#X obj 137 63 r \$0-play;
#X obj 48 106 r \$0-stop;
#X obj 137 117 sel 1;
#X obj 48 130 sel 1;
#X msg 48 154 0;
#X msg 137 141 1;
#X obj 358 651 else/any2symbol;
#X obj 358 675 pack s \$0;
#X msg 358 699 \; \$2-transport-bar-r label \$1;
#X obj 398 740 else/any2symbol;
#X obj 398 764 pack s \$0;
#X msg 398 788 \; \$2-transport-bar/4-r label \$1;
#X obj 439 833 else/any2symbol;
#X obj 439 857 pack s \$0;
#X msg 439 881 \; \$2-transport-bar/16-r label \$1;
#X obj 498 210 else/any2symbol;
#X obj 498 234 pack s \$0;
#X msg 498 258 \; \$2-transport-bar-r label \$1;
#X obj 137 90 change;
#N canvas 95 193 765 761 transport 0;
#X text 31 549 Out1 -> Start/Stop;
#X obj 234 28 inlet Start;
#X obj 234 259 metro;
#X obj 234 380 f;
#X obj 234 405 t f f;
#X obj 234 430 & 1;
#X obj 234 455 pack, f 5;
#X obj 234 480 route 0 1;
#X obj 234 575 outlet Counter-Shuffle;
#X obj 38 123 outlet Start;
#X obj 266 150 inlet BPM;
#X obj 266 176 expr (60000/$f1)/4;
#X obj 271 380 + 1;
#X obj 264 546 pipe, f 9;
#X obj 324 519 *, f 5;
#X obj 324 487 t b f;
#X obj 355 425 inlet Shuffle;
#X obj 76 243 outlet Pulse;
#X obj 519 190 inlet Start-Position;
#X obj 504 251 - 1;
#X obj 504 276 max 0;
#X obj 543 251 == 0;
#X obj 504 347 spigot;
#X obj 528 456 sel 1;
#X obj 528 488 f;
#X obj 558 488 + 1;
#X obj 528 512 % 4;
#X obj 528 536 + 1;
#X obj 457 448 sel 1;
#X obj 457 512 f;
#X obj 487 512 + 1;
#X obj 457 536 + 1;
#X obj 632 426 + 1;
#X obj 457 425 + 1;
#X obj 528 432 + 1;
#X obj 457 607 pack f f f, f 30;
#X obj 528 565 t b f;
#X obj 632 565 t b f;
#X obj 457 636 outlet Inspector[f-f-f];
#X obj 457 399 mod 16;
#X obj 528 399 mod 4;
#X obj 632 399 mod 4;
#X obj 121 399 outlet Counter;
#X obj 346 85 loadbang;
#X obj 234 55 t f b, f 39;
#X text 31 568 Out2 -> Pulse;
#X text 31 588 Out3 -> Counter;
#X text 31 608 Out4 -> Counter-Shuffle;
#X text 31 626 Out5 -> Inspector;
#X obj 266 200 t b f;
#X obj 266 224 f, f 5;
#X obj 454 271 == 0;
#X text 31 460 In1 -> Start/Stop;
#X text 31 480 In2 -> BPM;
#X text 31 500 In3 -> Shuffle;
#X text 31 518 In4 -> Start Position;
#X obj 603 276 expr ($f1 - 1) * 16;
#X text 629 302 bar -> 16th-notes;
#X connect 1 0 44 0;
#X connect 2 0 3 0;
#X connect 2 0 50 0;
#X connect 3 0 4 0;
#X connect 3 0 12 0;
#X connect 3 0 39 0;
#X connect 3 0 41 0;
#X connect 3 0 40 0;
#X connect 3 0 42 0;
#X connect 4 0 5 0;
#X connect 4 1 6 1;
#X connect 5 0 6 0;
#X connect 6 0 7 0;
#X connect 7 0 8 0;
#X connect 7 1 13 0;
#X connect 10 0 11 0;
#X connect 11 0 49 0;
#X connect 12 0 3 1;
#X connect 13 0 8 0;
#X connect 14 0 13 1;
#X connect 15 0 14 0;
#X connect 15 1 14 1;
#X connect 16 0 14 0;
#X connect 18 0 19 0;
#X connect 18 0 21 0;
#X connect 18 0 56 0;
#X connect 19 0 20 0;
#X connect 20 0 29 1;
#X connect 20 0 24 1;
#X connect 21 0 22 1;
#X connect 22 0 29 1;
#X connect 22 0 24 1;
#X connect 23 0 24 0;
#X connect 24 0 26 0;
#X connect 24 0 25 0;
#X connect 25 0 24 1;
#X connect 26 0 27 0;
#X connect 27 0 36 0;
#X connect 28 0 29 0;
#X connect 29 0 30 0;
#X connect 29 0 31 0;
#X connect 30 0 29 1;
#X connect 31 0 35 0;
#X connect 32 0 37 0;
#X connect 33 0 28 0;
#X connect 34 0 23 0;
#X connect 35 0 38 0;
#X connect 36 0 35 0;
#X connect 36 1 35 1;
#X connect 37 0 35 0;
#X connect 37 1 35 2;
#X connect 39 0 33 0;
#X connect 40 0 34 0;
#X connect 41 0 32 0;
#X connect 44 0 9 0;
#X connect 44 0 2 0;
#X connect 44 0 51 0;
#X connect 44 1 19 0;
#X connect 44 1 21 0;
#X connect 49 0 50 0;
#X connect 49 1 50 1;
#X connect 50 0 17 0;
#X connect 50 0 2 1;
#X connect 50 0 15 0;
#X connect 51 0 22 0;
#X connect 56 0 3 1;
#X restore 137 598 pd transport;
#X f 32;
#X obj 284 211 loadbang;
#X msg 284 572 0.33;
#X obj 236 498 else/any2symbol;
#X msg 236 522 label \$1;
#X obj 236 546 s \$0-tempo_bpm-r;
#X floatatom 210 465 0 0 0 0 Bpm - - 0;
#X obj 312 277 r \$0-track-backward-s;
#X obj 159 277 r \$0-track-forward-s;
#X obj 312 301 sel 1;
#X obj 159 301 sel 1;
#X obj 159 385 f;
#X obj 159 416 mod 999;
#X obj 159 440 + 1;
#X obj 209 386 expr $f1 + $f2;
#X obj 159 325 t b b;
#X msg 304 357 1;
#X obj 312 325 t b b;
#X msg 344 357 -1;
#X text 171 253 Default;
#X obj 144 513 s \$0-bpm;
#X obj 213 302 r \$0-bpm;
#X obj 26 741 outlet start;
#X obj 75 804 outlet counter;
#X obj 54 772 outlet pulse;
#X obj 101 841 outlet counter-shuffle;
#X obj 138 877 outlet inspector;
#X obj 192 230 t b f;
#X msg 224 253 119;
#X connect 0 0 7 0;
#X connect 1 0 8 0;
#X connect 2 0 37 0;
#X connect 2 0 41 3;
#X connect 3 0 28 0;
#X connect 3 1 31 0;
#X connect 3 2 34 0;
#X connect 4 0 41 0;
#X connect 5 0 4 0;
#X connect 5 1 4 1;
#X connect 6 0 5 0;
#X connect 6 1 2 0;
#X connect 7 0 9 0;
#X connect 8 0 12 0;
#X connect 9 0 10 0;
#X connect 9 0 11 0;
#X connect 10 0 9 1;
#X connect 11 0 15 0;
#X connect 12 0 13 0;
#X connect 12 0 14 0;
#X connect 13 0 16 0;
#X connect 14 0 12 1;
#X connect 15 0 2 0;
#X connect 16 0 15 0;
#X connect 16 1 15 1;
#X connect 18 0 19 0;
#X connect 19 0 21 0;
#X connect 19 0 20 0;
#X connect 20 0 12 1;
#X connect 20 0 9 1;
#X connect 20 0 11 0;
#X connect 20 0 13 0;
#X connect 21 0 2 0;
#X connect 22 0 40 0;
#X connect 23 0 25 0;
#X connect 24 0 27 0;
#X connect 25 0 26 0;
#X connect 26 0 6 0;
#X connect 27 0 6 0;
#X connect 28 0 29 0;
#X connect 29 0 30 0;
#X connect 31 0 32 0;
#X connect 32 0 33 0;
#X connect 34 0 35 0;
#X connect 35 0 36 0;
#X connect 37 0 38 0;
#X connect 38 0 39 0;
#X connect 40 0 24 0;
#X connect 41 0 63 0;
#X connect 41 1 65 0;
#X connect 41 2 64 0;
#X connect 41 3 66 0;
#X connect 41 4 3 0;
#X connect 42 0 43 0;
#X connect 42 0 68 0;
#X connect 43 0 41 2;
#X connect 44 0 45 0;
#X connect 45 0 46 0;
#X connect 47 0 41 1;
#X connect 47 0 44 0;
#X connect 47 0 61 0;
#X connect 48 0 50 0;
#X connect 49 0 51 0;
#X connect 50 0 58 0;
#X connect 51 0 56 0;
#X connect 52 0 53 0;
#X connect 52 0 55 0;
#X connect 53 0 54 0;
#X connect 54 0 47 0;
#X connect 55 0 52 1;
#X connect 56 0 52 0;
#X connect 56 1 57 0;
#X connect 57 0 55 1;
#X connect 58 0 52 0;
#X connect 58 1 59 0;
#X connect 59 0 55 1;
#X connect 62 0 52 1;
#X connect 68 0 52 0;
#X connect 68 1 69 0;
#X connect 69 0 52 1;
#X restore 1312 341 pd timeline;
#X obj 127 111 cnv 5 132 35 empty empty empty 20 18 0 12 #606060 #404040 0;
#X obj 134 130 cnv 5 1 1 \$0-transport-bar-s \$0-transport-bar-r 9 0 0 0 16 #404040 #dfdfdf 0;
#X obj 177 130 cnv 5 1 1 \$0-transport-bar/4-s \$0-transport-bar/4-r 2 0 0 0 16 #404040 #dfdfdf 0;
#X obj 220 130 cnv 5 1 1 \$0-transport-bar/16-s \$0-transport-bar/16-r 1 0 0 0 16 #404040 #dfdfdf 0;
#X obj 127 81 cnv 5 60 25 \$0-tempo_bpm-s \$0-tempo_bpm-r 120 14 14 0 16 #606060 #dfdfdf 0;
#N canvas 254 319 450 300 gui 1;
#N canvas 1368 392 450 300 vsl 0;
#N canvas 78 221 941 360 vsl1 0;
#X obj 263 23 r \$0-vsl1-s;
#X obj 263 119 i;
#X obj 263 143 pack f \$0;
#X msg 263 167 \; \$2-vsl1-background-r vis_size 28 \$1;
#X obj 263 47 t b f;
#X msg 263 71 127;
#X obj 263 95 -;
#X obj 39 42 expr if ($f1 == 127 \, 1 \, 0);
#X obj 39 66 sel 0 1, f 26;
#X msg 39 90 1;
#X obj 39 114 pack f \$0;
#X obj 128 222 pack f \$0;
#X msg 128 198 28;
#X msg 39 138 \; \$2-vsl1-fix-r vis_size \$1 1 \; \$2-vsl1-fix-r color 20;
#X msg 128 246 \; \$2-vsl1-fix-r vis_size \$1 1 \; \$2-vsl1-fix-r color 1;
#X obj 569 66 sel 0 1, f 26;
#X msg 569 90 1;
#X obj 569 114 pack f \$0;
#X obj 658 232 pack f \$0;
#X msg 658 208 28;
#X obj 569 42 expr if ($f1 == 0 \, 1 \, 0);
#X msg 569 138 \; \$2-vsl1-fix-down-r color 1 \; \$2-vsl1-fix-down-r vis_size \$1 3;
#X msg 658 256 \; \$2-vsl1-fix-down-r color 20 \; \$2-vsl1-fix-down-r vis_size \$1 3;
#X connect 0 0 4 0;
#X connect 0 0 7 0;
#X connect 0 0 20 0;
#X connect 1 0 2 0;
#X connect 2 0 3 0;
#X connect 4 0 5 0;
#X connect 4 1 6 1;
#X connect 5 0 6 0;
#X connect 6 0 1 0;
#X connect 7 0 8 0;
#X connect 8 0 9 0;
#X connect 8 1 12 0;
#X connect 9 0 10 0;
#X connect 10 0 13 0;
#X connect 11 0 14 0;
#X connect 12 0 11 0;
#X connect 15 0 16 0;
#X connect 15 1 19 0;
#X connect 16 0 17 0;
#X connect 17 0 21 0;
#X connect 18 0 22 0;
#X connect 19 0 18 0;
#X connect 20 0 15 0;
#X restore 50 25 pd vsl1;
#N canvas 40 294 974 344 vsl2 0;
#X obj 263 119 i;
#X obj 263 143 pack f \$0;
#X obj 263 47 t b f;
#X msg 263 71 127;
#X obj 263 95 -;
#X obj 39 42 expr if ($f1 == 127 \, 1 \, 0);
#X obj 39 66 sel 0 1, f 26;
#X msg 39 90 1;
#X obj 39 114 pack f \$0;
#X obj 128 222 pack f \$0;
#X msg 128 198 28;
#X obj 569 66 sel 0 1, f 26;
#X msg 569 90 1;
#X obj 569 114 pack f \$0;
#X obj 658 232 pack f \$0;
#X msg 658 208 28;
#X obj 569 42 expr if ($f1 == 0 \, 1 \, 0);
#X obj 263 23 r \$0-vsl2-s;
#X msg 39 138 \; \$2-vsl2-fix-r vis_size \$1 1 \; \$2-vsl2-fix-r color 20;
#X msg 128 246 \; \$2-vsl2-fix-r vis_size \$1 1 \; \$2-vsl2-fix-r color 1;
#X msg 263 167 \; \$2-vsl2-background-r vis_size 28 \$1;
#X msg 569 138 \; \$2-vsl2-fix-down-r color 1 \; \$2-vsl2-fix-down-r vis_size \$1 3;
#X msg 658 256 \; \$2-vsl2-fix-down-r color 20 \; \$2-vsl2-fix-down-r vis_size \$1 3;
#X connect 0 0 1 0;
#X connect 1 0 20 0;
#X connect 2 0 3 0;
#X connect 2 1 4 1;
#X connect 3 0 4 0;
#X connect 4 0 0 0;
#X connect 5 0 6 0;
#X connect 6 0 7 0;
#X connect 6 1 10 0;
#X connect 7 0 8 0;
#X connect 8 0 18 0;
#X connect 9 0 19 0;
#X connect 10 0 9 0;
#X connect 11 0 12 0;
#X connect 11 1 15 0;
#X connect 12 0 13 0;
#X connect 13 0 21 0;
#X connect 14 0 22 0;
#X connect 15 0 14 0;
#X connect 16 0 11 0;
#X connect 17 0 2 0;
#X connect 17 0 5 0;
#X connect 17 0 16 0;
#X restore 49 54 pd vsl2;
#N canvas 44 188 965 364 vsl3 0;
#X obj 263 119 i;
#X obj 263 143 pack f \$0;
#X obj 263 47 t b f;
#X msg 263 71 127;
#X obj 263 95 -;
#X obj 39 42 expr if ($f1 == 127 \, 1 \, 0);
#X obj 39 66 sel 0 1, f 26;
#X msg 39 90 1;
#X obj 39 114 pack f \$0;
#X obj 128 222 pack f \$0;
#X msg 128 198 28;
#X obj 569 66 sel 0 1, f 26;
#X msg 569 90 1;
#X obj 569 114 pack f \$0;
#X obj 658 232 pack f \$0;
#X msg 658 208 28;
#X obj 569 42 expr if ($f1 == 0 \, 1 \, 0);
#X obj 263 23 r \$0-vsl3-s;
#X msg 39 138 \; \$2-vsl3-fix-r vis_size \$1 1 \; \$2-vsl3-fix-r color 20;
#X msg 128 246 \; \$2-vsl3-fix-r vis_size \$1 1 \; \$2-vsl3-fix-r color 1;
#X msg 263 167 \; \$2-vsl3-background-r vis_size 28 \$1;
#X msg 569 138 \; \$2-vsl3-fix-down-r color 1 \; \$2-vsl3-fix-down-r vis_size \$1 3;
#X msg 658 256 \; \$2-vsl3-fix-down-r color 20 \; \$2-vsl3-fix-down-r vis_size \$1 3;
#X connect 0 0 1 0;
#X connect 1 0 20 0;
#X connect 2 0 3 0;
#X connect 2 1 4 1;
#X connect 3 0 4 0;
#X connect 4 0 0 0;
#X connect 5 0 6 0;
#X connect 6 0 7 0;
#X connect 6 1 10 0;
#X connect 7 0 8 0;
#X connect 8 0 18 0;
#X connect 9 0 19 0;
#X connect 10 0 9 0;
#X connect 11 0 12 0;
#X connect 11 1 15 0;
#X connect 12 0 13 0;
#X connect 13 0 21 0;
#X connect 14 0 22 0;
#X connect 15 0 14 0;
#X connect 16 0 11 0;
#X connect 17 0 2 0;
#X connect 17 0 5 0;
#X connect 17 0 16 0;
#X restore 50 85 pd vsl3;
#N canvas 78 221 957 384 vsl4 0;
#X obj 263 119 i;
#X obj 263 143 pack f \$0;
#X obj 263 47 t b f;
#X msg 263 71 127;
#X obj 263 95 -;
#X obj 39 42 expr if ($f1 == 127 \, 1 \, 0);
#X obj 39 66 sel 0 1, f 26;
#X msg 39 90 1;
#X obj 39 114 pack f \$0;
#X obj 128 222 pack f \$0;
#X msg 128 198 28;
#X obj 569 66 sel 0 1, f 26;
#X msg 569 90 1;
#X obj 569 114 pack f \$0;
#X obj 658 232 pack f \$0;
#X msg 658 208 28;
#X obj 569 42 expr if ($f1 == 0 \, 1 \, 0);
#X obj 263 23 r \$0-vsl4-s;
#X msg 39 138 \; \$2-vsl4-fix-r vis_size \$1 1 \; \$2-vsl4-fix-r color 20;
#X msg 128 246 \; \$2-vsl4-fix-r vis_size \$1 1 \; \$2-vsl4-fix-r color 1;
#X msg 263 167 \; \$2-vsl4-background-r vis_size 28 \$1;
#X msg 569 138 \; \$2-vsl4-fix-down-r color 1 \; \$2-vsl4-fix-down-r vis_size \$1 3;
#X msg 658 256 \; \$2-vsl4-fix-down-r color 20 \; \$2-vsl4-fix-down-r vis_size \$1 3;
#X connect 0 0 1 0;
#X connect 1 0 20 0;
#X connect 2 0 3 0;
#X connect 2 1 4 1;
#X connect 3 0 4 0;
#X connect 4 0 0 0;
#X connect 5 0 6 0;
#X connect 6 0 7 0;
#X connect 6 1 10 0;
#X connect 7 0 8 0;
#X connect 8 0 18 0;
#X connect 9 0 19 0;
#X connect 10 0 9 0;
#X connect 11 0 12 0;
#X connect 11 1 15 0;
#X connect 12 0 13 0;
#X connect 13 0 21 0;
#X connect 14 0 22 0;
#X connect 15 0 14 0;
#X connect 16 0 11 0;
#X connect 17 0 2 0;
#X connect 17 0 5 0;
#X connect 17 0 16 0;
#X restore 49 114 pd vsl4;
#N canvas 78 221 953 355 vsl5 0;
#X obj 263 119 i;
#X obj 263 143 pack f \$0;
#X obj 263 47 t b f;
#X msg 263 71 127;
#X obj 263 95 -;
#X obj 39 42 expr if ($f1 == 127 \, 1 \, 0);
#X obj 39 66 sel 0 1, f 26;
#X msg 39 90 1;
#X obj 39 114 pack f \$0;
#X obj 128 222 pack f \$0;
#X msg 128 198 28;
#X obj 569 66 sel 0 1, f 26;
#X msg 569 90 1;
#X obj 569 114 pack f \$0;
#X obj 658 232 pack f \$0;
#X msg 658 208 28;
#X obj 569 42 expr if ($f1 == 0 \, 1 \, 0);
#X msg 39 138 \; \$2-vsl5-fix-r vis_size \$1 1 \; \$2-vsl5-fix-r color 20;
#X msg 128 246 \; \$2-vsl5-fix-r vis_size \$1 1 \; \$2-vsl5-fix-r color 1;
#X msg 263 167 \; \$2-vsl5-background-r vis_size 28 \$1;
#X msg 569 138 \; \$2-vsl5-fix-down-r color 1 \; \$2-vsl5-fix-down-r vis_size \$1 3;
#X msg 657 256 \; \$2-vsl5-fix-down-r color 20 \; \$2-vsl5-fix-down-r vis_size \$1 3;
#X obj 263 23 r \$0-vsl5-s;
#X connect 0 0 1 0;
#X connect 1 0 19 0;
#X connect 2 0 3 0;
#X connect 2 1 4 1;
#X connect 3 0 4 0;
#X connect 4 0 0 0;
#X connect 5 0 6 0;
#X connect 6 0 7 0;
#X connect 6 1 10 0;
#X connect 7 0 8 0;
#X connect 8 0 17 0;
#X connect 9 0 18 0;
#X connect 10 0 9 0;
#X connect 11 0 12 0;
#X connect 11 1 15 0;
#X connect 12 0 13 0;
#X connect 13 0 20 0;
#X connect 14 0 21 0;
#X connect 15 0 14 0;
#X connect 16 0 11 0;
#X connect 22 0 2 0;
#X connect 22 0 5 0;
#X connect 22 0 16 0;
#X restore 50 145 pd vsl5;
#N canvas 82 225 949 359 vsl6 0;
#X obj 263 119 i;
#X obj 263 143 pack f \$0;
#X obj 263 47 t b f;
#X msg 263 71 127;
#X obj 263 95 -;
#X obj 39 42 expr if ($f1 == 127 \, 1 \, 0);
#X obj 39 66 sel 0 1, f 26;
#X msg 39 90 1;
#X obj 39 114 pack f \$0;
#X obj 128 222 pack f \$0;
#X msg 128 198 28;
#X obj 569 66 sel 0 1, f 26;
#X msg 569 90 1;
#X obj 569 114 pack f \$0;
#X obj 658 232 pack f \$0;
#X msg 658 208 28;
#X obj 569 42 expr if ($f1 == 0 \, 1 \, 0);
#X obj 263 23 r \$0-vsl6-s;
#X msg 39 138 \; \$2-vsl6-fix-r vis_size \$1 1 \; \$2-vsl6-fix-r color 20;
#X msg 128 246 \; \$2-vsl6-fix-r vis_size \$1 1 \; \$2-vsl6-fix-r color 1;
#X msg 263 167 \; \$2-vsl6-background-r vis_size 28 \$1;
#X msg 569 138 \; \$2-vsl6-fix-down-r color 1 \; \$2-vsl6-fix-down-r vis_size \$1 3;
#X msg 658 256 \; \$2-vsl6-fix-down-r color 20 \; \$2-vsl6-fix-down-r vis_size \$1 3;
#X connect 0 0 1 0;
#X connect 1 0 20 0;
#X connect 2 0 3 0;
#X connect 2 1 4 1;
#X connect 3 0 4 0;
#X connect 4 0 0 0;
#X connect 5 0 6 0;
#X connect 6 0 7 0;
#X connect 6 1 10 0;
#X connect 7 0 8 0;
#X connect 8 0 18 0;
#X connect 9 0 19 0;
#X connect 10 0 9 0;
#X connect 11 0 12 0;
#X connect 11 1 15 0;
#X connect 12 0 13 0;
#X connect 13 0 21 0;
#X connect 14 0 22 0;
#X connect 15 0 14 0;
#X connect 16 0 11 0;
#X connect 17 0 2 0;
#X connect 17 0 5 0;
#X connect 17 0 16 0;
#X restore 50 174 pd vsl6;
#N canvas 78 221 949 367 vsl7 0;
#X obj 263 119 i;
#X obj 263 143 pack f \$0;
#X obj 263 47 t b f;
#X msg 263 71 127;
#X obj 263 95 -;
#X obj 39 42 expr if ($f1 == 127 \, 1 \, 0);
#X obj 39 66 sel 0 1, f 26;
#X msg 39 90 1;
#X obj 39 114 pack f \$0;
#X obj 128 222 pack f \$0;
#X msg 128 198 28;
#X obj 569 66 sel 0 1, f 26;
#X msg 569 90 1;
#X obj 569 114 pack f \$0;
#X obj 658 232 pack f \$0;
#X msg 658 208 28;
#X obj 569 42 expr if ($f1 == 0 \, 1 \, 0);
#X msg 39 138 \; \$2-vsl7-fix-r vis_size \$1 1 \; \$2-vsl7-fix-r color 20;
#X msg 128 246 \; \$2-vsl7-fix-r vis_size \$1 1 \; \$2-vsl7-fix-r color 1;
#X obj 263 23 r \$0-vsl7-s;
#X msg 263 167 \; \$2-vsl7-background-r vis_size 28 \$1;
#X msg 569 138 \; \$2-vsl7-fix-down-r color 1 \; \$2-vsl7-fix-down-r vis_size \$1 3;
#X msg 658 256 \; \$2-vsl7-fix-down-r color 20 \; \$2-vsl7-fix-down-r vis_size \$1 3;
#X connect 0 0 1 0;
#X connect 1 0 20 0;
#X connect 2 0 3 0;
#X connect 2 1 4 1;
#X connect 3 0 4 0;
#X connect 4 0 0 0;
#X connect 5 0 6 0;
#X connect 6 0 7 0;
#X connect 6 1 10 0;
#X connect 7 0 8 0;
#X connect 8 0 17 0;
#X connect 9 0 18 0;
#X connect 10 0 9 0;
#X connect 11 0 12 0;
#X connect 11 1 15 0;
#X connect 12 0 13 0;
#X connect 13 0 21 0;
#X connect 14 0 22 0;
#X connect 15 0 14 0;
#X connect 16 0 11 0;
#X connect 19 0 2 0;
#X connect 19 0 5 0;
#X connect 19 0 16 0;
#X restore 50 205 pd vsl7;
#N canvas 78 221 950 370 vsl8 0;
#X obj 263 119 i;
#X obj 263 143 pack f \$0;
#X obj 263 47 t b f;
#X msg 263 71 127;
#X obj 263 95 -;
#X obj 39 42 expr if ($f1 == 127 \, 1 \, 0);
#X obj 39 66 sel 0 1, f 26;
#X msg 39 90 1;
#X obj 39 114 pack f \$0;
#X obj 128 222 pack f \$0;
#X msg 128 198 28;
#X obj 569 66 sel 0 1, f 26;
#X msg 569 90 1;
#X obj 569 114 pack f \$0;
#X obj 658 232 pack f \$0;
#X msg 658 208 28;
#X obj 569 42 expr if ($f1 == 0 \, 1 \, 0);
#X msg 39 138 \; \$2-vsl8-fix-r vis_size \$1 1 \; \$2-vsl8-fix-r color 20;
#X msg 128 246 \; \$2-vsl8-fix-r vis_size \$1 1 \; \$2-vsl8-fix-r color 1;
#X obj 263 23 r \$0-vsl8-s;
#X msg 263 167 \; \$2-vsl8-background-r vis_size 28 \$1;
#X msg 569 138 \; \$2-vsl8-fix-down-r color 1 \; \$2-vsl8-fix-down-r vis_size \$1 3;
#X msg 657 255 \; \$2-vsl8-fix-down-r color 20 \; \$2-vsl8-fix-down-r vis_size \$1 3;
#X connect 0 0 1 0;
#X connect 1 0 20 0;
#X connect 2 0 3 0;
#X connect 2 1 4 1;
#X connect 3 0 4 0;
#X connect 4 0 0 0;
#X connect 5 0 6 0;
#X connect 6 0 7 0;
#X connect 6 1 10 0;
#X connect 7 0 8 0;
#X connect 8 0 17 0;
#X connect 9 0 18 0;
#X connect 10 0 9 0;
#X connect 11 0 12 0;
#X connect 11 1 15 0;
#X connect 12 0 13 0;
#X connect 13 0 21 0;
#X connect 14 0 22 0;
#X connect 15 0 14 0;
#X connect 16 0 11 0;
#X connect 19 0 2 0;
#X connect 19 0 5 0;
#X connect 19 0 16 0;
#X restore 50 234 pd vsl8;
#X restore 25 121 pd vsl;
#N canvas 1183 331 450 337 tgl 0;
#N canvas 815 407 973 463 solos 0;
#X obj 25 16 r \$0-tgl1-s-s;
#X obj 25 40 sel 0 1, f 13;
#X obj 25 64 \$0;
#X obj 69 134 \$0;
#X msg 25 88 \; \$1-tgl1-s-r color 10 10 2;
#X msg 67 158 \; \$1-tgl1-s-r color 13 13 10;
#X obj 235 40 sel 0 1, f 13;
#X obj 235 64 \$0;
#X obj 279 134 \$0;
#X obj 455 40 sel 0 1, f 13;
#X obj 455 64 \$0;
#X obj 499 134 \$0;
#X obj 665 40 sel 0 1, f 13;
#X obj 665 64 \$0;
#X obj 709 134 \$0;
#X obj 25 230 sel 0 1, f 13;
#X obj 25 254 \$0;
#X obj 69 324 \$0;
#X obj 235 230 sel 0 1, f 13;
#X obj 235 254 \$0;
#X obj 279 324 \$0;
#X obj 455 230 sel 0 1, f 13;
#X obj 455 254 \$0;
#X obj 499 324 \$0;
#X obj 665 230 sel 0 1, f 13;
#X obj 665 254 \$0;
#X obj 709 324 \$0;
#X obj 235 16 r \$0-tgl2-s-s;
#X msg 235 89 \; \$1-tgl2-s-r color 10 10 2;
#X msg 277 158 \; \$1-tgl2-s-r color 13 13 10;
#X msg 455 88 \; \$1-tgl3-s-r color 10 10 2;
#X msg 497 158 \; \$1-tgl3-s-r color 13 13 10;
#X obj 455 16 r \$0-tgl3-s-s;
#X obj 665 17 r \$0-tgl4-s-s;
#X msg 665 88 \; \$1-tgl4-s-r color 10 10 2;
#X msg 707 157 \; \$1-tgl4-s-r color 13 13 10;
#X msg 707 349 \; \$1-tgl8-s-r color 13 13 10;
#X msg 665 278 \; \$1-tgl8-s-r color 10 10 2;
#X obj 665 206 r \$0-tgl8-s-s;
#X obj 455 206 r \$0-tgl7-s-s;
#X msg 499 349 \; \$1-tgl7-s-r color 13 13 10;
#X msg 455 278 \; \$1-tgl7-s-r color 10 10 2;
#X obj 25 206 r \$0-tgl5-s-s;
#X msg 25 278 \; \$1-tgl5-s-r color 10 10 2;
#X msg 65 349 \; \$1-tgl5-s-r color 13 13 10;
#X msg 277 348 \; \$1-tgl6-s-r color 13 13 10;
#X msg 235 278 \; \$1-tgl6-s-r color 10 10 2;
#X obj 235 206 r \$0-tgl6-s-s;
#X connect 0 0 1 0;
#X connect 1 0 2 0;
#X connect 1 1 3 0;
#X connect 2 0 4 0;
#X connect 3 0 5 0;
#X connect 6 0 7 0;
#X connect 6 1 8 0;
#X connect 7 0 28 0;
#X connect 8 0 29 0;
#X connect 9 0 10 0;
#X connect 9 1 11 0;
#X connect 10 0 30 0;
#X connect 11 0 31 0;
#X connect 12 0 13 0;
#X connect 12 1 14 0;
#X connect 13 0 34 0;
#X connect 14 0 35 0;
#X connect 15 0 16 0;
#X connect 15 1 17 0;
#X connect 16 0 43 0;
#X connect 17 0 44 0;
#X connect 18 0 19 0;
#X connect 18 1 20 0;
#X connect 19 0 46 0;
#X connect 20 0 45 0;
#X connect 21 0 22 0;
#X connect 21 1 23 0;
#X connect 22 0 41 0;
#X connect 23 0 40 0;
#X connect 24 0 25 0;
#X connect 24 1 26 0;
#X connect 25 0 37 0;
#X connect 26 0 36 0;
#X connect 27 0 6 0;
#X connect 32 0 9 0;
#X connect 33 0 12 0;
#X connect 38 0 24 0;
#X connect 39 0 21 0;
#X connect 42 0 15 0;
#X connect 47 0 18 0;
#X restore 61 36 pd solos;
#N canvas 128 128 973 463 mutes 0;
#X obj 25 60 sel 0 1, f 13;
#X obj 25 84 \$0;
#X obj 69 154 \$0;
#X obj 235 60 sel 0 1, f 13;
#X obj 235 84 \$0;
#X obj 279 154 \$0;
#X obj 455 60 sel 0 1, f 13;
#X obj 455 84 \$0;
#X obj 499 154 \$0;
#X obj 665 60 sel 0 1, f 13;
#X obj 665 84 \$0;
#X obj 709 154 \$0;
#X obj 25 250 sel 0 1, f 13;
#X obj 25 274 \$0;
#X obj 69 344 \$0;
#X obj 235 250 sel 0 1, f 13;
#X obj 235 274 \$0;
#X obj 279 344 \$0;
#X obj 455 250 sel 0 1, f 13;
#X obj 455 274 \$0;
#X obj 499 344 \$0;
#X obj 665 250 sel 0 1, f 13;
#X obj 665 274 \$0;
#X obj 709 344 \$0;
#X obj 25 36 r \$0-tgl1-m-s;
#X msg 25 108 \; \$1-tgl1-m-r color 10 10 2;
#X msg 67 178 \; \$1-tgl1-m-r color 13 13 10;
#X obj 235 36 r \$0-tgl2-m-s;
#X msg 235 109 \; \$1-tgl2-m-r color 10 10 2;
#X msg 276 178 \; \$1-tgl2-m-r color 13 13 10;
#X obj 455 36 r \$0-tgl3-m-s;
#X msg 455 108 \; \$1-tgl3-m-r color 10 10 2;
#X msg 496 178 \; \$1-tgl3-m-r color 13 13 10;
#X obj 664 37 r \$0-tgl4-m-s;
#X msg 664 108 \; \$1-tgl4-m-r color 10 10 2;
#X msg 707 177 \; \$1-tgl4-m-r color 13 13 10;
#X obj 25 225 r \$0-tgl5-m-s;
#X msg 25 298 \; \$1-tgl5-m-r color 10 10 2;
#X msg 65 369 \; \$1-tgl5-m-r color 13 13 10;
#X msg 235 298 \; \$1-tgl6-m-r color 10 10 2;
#X msg 277 368 \; \$1-tgl6-m-r color 13 13 10;
#X obj 235 226 r \$0-tgl6-m-s;
#X obj 455 226 r \$0-tgl7-m-s;
#X msg 455 298 \; \$1-tgl7-m-r color 10 10 2;
#X msg 499 369 \; \$1-tgl7-m-r color 13 13 10;
#X obj 666 226 r \$0-tgl8-m-s;
#X msg 666 299 \; \$1-tgl8-m-r color 10 10 2;
#X msg 707 369 \; \$1-tgl8-m-r color 13 13 10;
#X connect 0 0 1 0;
#X connect 0 1 2 0;
#X connect 1 0 25 0;
#X connect 2 0 26 0;
#X connect 3 0 4 0;
#X connect 3 1 5 0;
#X connect 4 0 28 0;
#X connect 5 0 29 0;
#X connect 6 0 7 0;
#X connect 6 1 8 0;
#X connect 7 0 31 0;
#X connect 8 0 32 0;
#X connect 9 0 10 0;
#X connect 9 1 11 0;
#X connect 10 0 34 0;
#X connect 11 0 35 0;
#X connect 12 0 13 0;
#X connect 12 1 14 0;
#X connect 13 0 37 0;
#X connect 14 0 38 0;
#X connect 15 0 16 0;
#X connect 15 1 17 0;
#X connect 16 0 39 0;
#X connect 17 0 40 0;
#X connect 18 0 19 0;
#X connect 18 1 20 0;
#X connect 19 0 43 0;
#X connect 20 0 44 0;
#X connect 21 0 22 0;
#X connect 21 1 23 0;
#X connect 22 0 46 0;
#X connect 23 0 47 0;
#X connect 24 0 0 0;
#X connect 27 0 3 0;
#X connect 30 0 6 0;
#X connect 33 0 9 0;
#X connect 36 0 12 0;
#X connect 41 0 15 0;
#X connect 42 0 18 0;
#X connect 45 0 21 0;
#X restore 61 65 pd mutes;
#N canvas 781 160 973 463 records-FX 0;
#X obj 25 40 sel 0 1, f 13;
#X obj 25 64 \$0;
#X obj 69 134 \$0;
#X obj 235 40 sel 0 1, f 13;
#X obj 235 64 \$0;
#X obj 279 134 \$0;
#X obj 455 40 sel 0 1, f 13;
#X obj 455 64 \$0;
#X obj 499 134 \$0;
#X obj 665 40 sel 0 1, f 13;
#X obj 665 64 \$0;
#X obj 709 134 \$0;
#X obj 25 230 sel 0 1, f 13;
#X obj 25 254 \$0;
#X obj 69 324 \$0;
#X obj 235 230 sel 0 1, f 13;
#X obj 235 254 \$0;
#X obj 279 324 \$0;
#X obj 455 230 sel 0 1, f 13;
#X obj 455 254 \$0;
#X obj 499 324 \$0;
#X obj 665 230 sel 0 1, f 13;
#X obj 665 254 \$0;
#X obj 709 324 \$0;
#X obj 25 16 r \$0-tgl1-r-s;
#X msg 25 88 \; \$1-tgl1-r-r color 10 10 2;
#X msg 67 158 \; \$1-tgl1-r-r color 13 13 10;
#X obj 235 16 r \$0-tgl2-r-s;
#X msg 235 89 \; \$1-tgl2-r-r color 10 10 2;
#X msg 276 158 \; \$1-tgl2-r-r color 13 13 10;
#X obj 455 16 r \$0-tgl3-r-s;
#X msg 455 88 \; \$1-tgl3-r-r color 10 10 2;
#X msg 495 158 \; \$1-tgl3-r-r color 13 13 10;
#X obj 664 17 r \$0-tgl4-r-s;
#X msg 664 88 \; \$1-tgl4-r-r color 10 10 2;
#X msg 707 157 \; \$1-tgl4-r-r color 13 13 10;
#X obj 25 205 r \$0-tgl5-r-s;
#X msg 25 278 \; \$1-tgl5-r-r color 10 10 2;
#X msg 65 349 \; \$1-tgl5-r-r color 13 13 10;
#X obj 234 206 r \$0-tgl6-r-s;
#X msg 235 278 \; \$1-tgl6-r-r color 10 10 2;
#X msg 277 348 \; \$1-tgl6-r-r color 13 13 10;
#X obj 453 206 r \$0-tgl7-r-s;
#X msg 455 278 \; \$1-tgl7-r-r color 10 10 2;
#X msg 499 349 \; \$1-tgl7-r-r color 13 13 10;
#X obj 666 206 r \$0-tgl8-r-s;
#X msg 666 279 \; \$1-tgl8-r-r color 10 10 2;
#X msg 707 349 \; \$1-tgl8-r-r color 13 13 10;
#X connect 0 0 1 0;
#X connect 0 1 2 0;
#X connect 1 0 25 0;
#X connect 2 0 26 0;
#X connect 3 0 4 0;
#X connect 3 1 5 0;
#X connect 4 0 28 0;
#X connect 5 0 29 0;
#X connect 6 0 7 0;
#X connect 6 1 8 0;
#X connect 7 0 31 0;
#X connect 8 0 32 0;
#X connect 9 0 10 0;
#X connect 9 1 11 0;
#X connect 10 0 34 0;
#X connect 11 0 35 0;
#X connect 12 0 13 0;
#X connect 12 1 14 0;
#X connect 13 0 37 0;
#X connect 14 0 38 0;
#X connect 15 0 16 0;
#X connect 15 1 17 0;
#X connect 16 0 40 0;
#X connect 17 0 41 0;
#X connect 18 0 19 0;
#X connect 18 1 20 0;
#X connect 19 0 43 0;
#X connect 20 0 44 0;
#X connect 21 0 22 0;
#X connect 21 1 23 0;
#X connect 22 0 46 0;
#X connect 23 0 47 0;
#X connect 24 0 0 0;
#X connect 27 0 3 0;
#X connect 30 0 6 0;
#X connect 33 0 9 0;
#X connect 36 0 12 0;
#X connect 39 0 15 0;
#X connect 42 0 18 0;
#X connect 45 0 21 0;
#X restore 61 95 pd records-FX;
#X restore 80 121 pd tgl;
#N canvas 116 208 1623 525 transport 0;
#X obj 646 79 sel 0 1, f 11;
#X obj 646 103 \$0;
#X obj 682 184 \$0;
#X obj 646 55 r \$0-stop-s;
#X obj 425 55 r \$0-play-s;
#X obj 425 79 sel 0 1, f 11;
#X obj 425 103 \$0;
#X obj 461 184 \$0;
#X obj 225 79 sel 0 1, f 11;
#X obj 225 103 \$0;
#X obj 261 184 \$0;
#X obj 225 55 r \$0-forward-s;
#X msg 225 127 \; \$1-forward-r color 10 10 2;
#X obj 15 79 sel 0 1, f 11;
#X obj 15 103 \$0;
#X obj 51 184 \$0;
#X msg 15 127 \; \$1-backward-r color 10 10 2;
#X obj 15 55 r \$0-backward-s;
#X obj 70 308 sel 0 1, f 11;
#X obj 70 332 \$0;
#X obj 106 413 \$0;
#X msg 70 356 \; \$1-track-backward-r color 10 10 2;
#X msg 106 438 \; \$1-track-backward-r color 13 13 10;
#X obj 595 299 sel 0 1, f 11;
#X obj 595 323 \$0;
#X obj 631 404 \$0;
#X obj 1065 299 sel 0 1, f 11;
#X obj 1065 323 \$0;
#X obj 1101 404 \$0;
#X obj 795 299 sel 0 1, f 11;
#X obj 795 323 \$0;
#X obj 832 403 \$0;
#X obj 795 275 r \$0-marker-backward-s;
#X obj 1065 275 r \$0-marker-forward-s;
#X obj 595 275 r \$0-loop-s;
#X msg 595 347 \; \$1-loop-r color 10 10 2;
#X obj 1358 297 sel 0 1, f 11;
#X obj 1358 321 \$0;
#X obj 1394 402 \$0;
#X obj 1358 273 r \$0-set-s;
#X obj 330 308 sel 0 1, f 11;
#X obj 330 332 \$0;
#X obj 366 413 \$0;
#X msg 330 356 \; \$1-track-forward-r color 10 10 2;
#X msg 366 438 \; \$1-track-forward-r color 13 13 10;
#X obj 70 280 r \$0-track-backward-s;
#X obj 330 281 r \$0-track-forward-s;
#X msg 795 347 \; \$1-marker-backward-r color 10 10 2 \; \$1-mark-backward float 0;
#X msg 832 429 \; \$1-marker-backward-r color 13 13 10 \; \$1-mark-backward float 1;
#X msg 1065 347 \; \$1-marker-forward-r color 10 10 2 \; \$1-mark-forward float 0;
#X msg 1101 429 \; \$1-marker-forward-r color 13 13 10 \; \$1-mark-forward float 1;
#X msg 1358 345 \; \$1-set-r color 10 10 2 \; \$1-set float 0;
#X msg 1394 427 \; \$1-set-r color 13 13 10 \; \$1-set float 1;
#X msg 425 127 \; \$1-play-r color 10 10 2 \; \$1-play float 0;
#X msg 461 209 \; \$1-play-r color 13 13 10 \; \$1-play float 1;
#X msg 646 127 \; \$1-stop-r color 10 10 2 \; \$1-stop float 0;
#X msg 682 209 \; \$1-stop-r color 13 13 10 \; \$1-stop float 1;
#X obj 793 18 r \$0-port_number(filtered);
#X obj 1581 34 r \$0-url-s;
#X obj 1581 58 sel 1;
#X obj 1581 82 t b b;
#X msg 1613 108 1;
#X obj 1581 129 del 250;
#X msg 1581 153 0;
#X obj 1581 299 sel 0 1;
#X obj 1581 328 \$0;
#X obj 1604 398 \$0;
#X msg 1604 422 \; \$1-url-r color 13 13 10;
#X obj 1782 400 pdcontrol;
#X msg 1782 374 browse https://github.com/DSBhproject;
#X obj 1682 131 t f f, f 9;
#X obj 1742 262 tgl 19 0 empty empty empty 0 -10 0 12 #fcfcfc #000000 #000000 0 1;
#X obj 1681 228 pipe 250;
#X msg 1681 180 1;
#X obj 1681 204 -;
#X obj 1681 156 t b f;
#X msg 1682 97 1;
#X obj 1742 286 change;
#X obj 1742 310 s \$0-url-r;
#X msg 1581 352 \; \$1-url-r color 10 10 2;
#X obj 1752 25 r \$0-port_number(filtered);
#X obj 1692 52 ctlout 45;
#X obj 733 74 ctlout 42;
#X obj 524 74 ctlout 41;
#X msg 261 209 \; \$1-forward-r color 15 15 2;
#X msg 51 209 \; \$1-backward-r color 15 15 2;
#X msg 631 429 \; \$1-loop-r color 15 15 2;
#X connect 0 0 1 0;
#X connect 0 1 2 0;
#X connect 1 0 55 0;
#X connect 2 0 56 0;
#X connect 3 0 0 0;
#X connect 3 0 82 0;
#X connect 4 0 5 0;
#X connect 4 0 83 0;
#X connect 5 0 6 0;
#X connect 5 1 7 0;
#X connect 6 0 53 0;
#X connect 7 0 54 0;
#X connect 8 0 9 0;
#X connect 8 1 10 0;
#X connect 9 0 12 0;
#X connect 10 0 84 0;
#X connect 11 0 8 0;
#X connect 13 0 14 0;
#X connect 13 1 15 0;
#X connect 14 0 16 0;
#X connect 15 0 85 0;
#X connect 17 0 13 0;
#X connect 18 0 19 0;
#X connect 18 1 20 0;
#X connect 19 0 21 0;
#X connect 20 0 22 0;
#X connect 23 0 24 0;
#X connect 23 1 25 0;
#X connect 24 0 35 0;
#X connect 25 0 86 0;
#X connect 26 0 27 0;
#X connect 26 1 28 0;
#X connect 27 0 49 0;
#X connect 28 0 50 0;
#X connect 29 0 30 0;
#X connect 29 1 31 0;
#X connect 30 0 47 0;
#X connect 31 0 48 0;
#X connect 32 0 29 0;
#X connect 33 0 26 0;
#X connect 34 0 23 0;
#X connect 36 0 37 0;
#X connect 36 1 38 0;
#X connect 37 0 51 0;
#X connect 38 0 52 0;
#X connect 39 0 36 0;
#X connect 40 0 41 0;
#X connect 40 1 42 0;
#X connect 41 0 43 0;
#X connect 42 0 44 0;
#X connect 45 0 18 0;
#X connect 46 0 40 0;
#X connect 57 0 82 2;
#X connect 57 0 83 2;
#X connect 58 0 59 0;
#X connect 58 0 81 0;
#X connect 59 0 60 0;
#X connect 59 0 76 0;
#X connect 60 0 62 0;
#X connect 60 1 61 0;
#X connect 61 0 64 0;
#X connect 62 0 63 0;
#X connect 63 0 64 0;
#X connect 64 0 65 0;
#X connect 64 0 69 0;
#X connect 64 1 66 0;
#X connect 65 0 79 0;
#X connect 66 0 67 0;
#X connect 69 0 68 0;
#X connect 70 0 75 0;
#X connect 70 1 71 0;
#X connect 71 0 77 0;
#X connect 72 0 71 0;
#X connect 73 0 74 0;
#X connect 74 0 72 0;
#X connect 75 0 73 0;
#X connect 75 1 74 1;
#X connect 76 0 70 0;
#X connect 77 0 78 0;
#X connect 80 0 81 2;
#X restore 222 122 pd transport;
#N canvas 4 4 1920 1026 labels 0;
#X obj 19 142 t b a;
#X obj 19 166 symbol;
#X obj 19 190 list fromsymbol;
#X obj 19 214 list length;
#X obj 19 118 else/any2symbol;
#X obj 19 241 t b f;
#X msg 19 265 10;
#X obj 19 289 -, f 5;
#X obj 19 313 / 2;
#X obj 19 418 pack f \$0;
#X obj 19 394 *, f 5;
#X obj 19 337 t f b;
#X obj 19 93 t a a, f 19;
#X obj 149 118 pack s \$0;
#X msg 51 367 7;
#X obj 376 142 t b a;
#X obj 376 166 symbol;
#X obj 376 190 list fromsymbol;
#X obj 376 214 list length;
#X obj 376 118 else/any2symbol;
#X obj 376 241 t b f;
#X msg 376 265 10;
#X obj 376 289 -, f 5;
#X obj 376 313 / 2;
#X obj 376 418 pack f \$0;
#X obj 376 394 *, f 5;
#X obj 376 337 t f b;
#X obj 376 93 t a a, f 19;
#X obj 506 118 pack s \$0;
#X msg 408 367 7;
#X obj 733 142 t b a;
#X obj 733 166 symbol;
#X obj 733 190 list fromsymbol;
#X obj 733 214 list length;
#X obj 733 118 else/any2symbol;
#X obj 733 241 t b f;
#X msg 733 265 10;
#X obj 733 289 -, f 5;
#X obj 733 313 / 2;
#X obj 733 418 pack f \$0;
#X obj 733 394 *, f 5;
#X obj 733 337 t f b;
#X obj 733 93 t a a, f 19;
#X obj 863 118 pack s \$0;
#X msg 765 367 7;
#X obj 1091 142 t b a;
#X obj 1091 166 symbol;
#X obj 1091 190 list fromsymbol;
#X obj 1091 214 list length;
#X obj 1091 118 else/any2symbol;
#X obj 1091 241 t b f;
#X msg 1091 265 10;
#X obj 1091 289 -, f 5;
#X obj 1091 313 / 2;
#X obj 1091 418 pack f \$0;
#X obj 1091 394 *, f 5;
#X obj 1091 337 t f b;
#X obj 1091 93 t a a, f 19;
#X obj 1221 118 pack s \$0;
#X msg 1123 367 7;
#X obj 1448 142 t b a;
#X obj 1448 166 symbol;
#X obj 1448 190 list fromsymbol;
#X obj 1448 214 list length;
#X obj 1448 118 else/any2symbol;
#X obj 1448 241 t b f;
#X msg 1448 265 10;
#X obj 1448 289 -, f 5;
#X obj 1448 313 / 2;
#X obj 1448 418 pack f \$0;
#X obj 1448 394 *, f 5;
#X obj 1448 337 t f b;
#X obj 1448 93 t a a, f 19;
#X obj 1578 118 pack s \$0;
#X msg 1480 367 7;
#X obj 1806 142 t b a, f 6;
#X obj 1806 166 symbol;
#X obj 1806 190 list fromsymbol;
#X obj 1806 214 list length;
#X obj 1806 118 else/any2symbol;
#X obj 1806 241 t b f;
#X msg 1806 265 10;
#X obj 1806 289 -, f 5;
#X obj 1806 313 / 2;
#X obj 1806 418 pack f \$0;
#X obj 1806 394 *, f 5;
#X obj 1806 337 t f b;
#X obj 1806 93 t a a, f 19;
#X obj 1936 118 pack s \$0;
#X msg 1838 367 7;
#X obj 2163 142 t b a;
#X obj 2163 166 symbol;
#X obj 2163 190 list fromsymbol;
#X obj 2163 214 list length;
#X obj 2163 118 else/any2symbol;
#X obj 2163 241 t b f;
#X msg 2163 265 10;
#X obj 2163 289 -, f 5;
#X obj 2163 313 / 2;
#X obj 2163 418 pack f \$0;
#X obj 2163 394 *, f 5;
#X obj 2163 337 t f b;
#X obj 2163 93 t a a, f 19;
#X obj 2293 118 pack s \$0;
#X msg 2195 367 7;
#X obj 2520 142 t b a;
#X obj 2520 166 symbol;
#X obj 2520 190 list fromsymbol;
#X obj 2520 214 list length;
#X obj 2520 118 else/any2symbol;
#X obj 2520 241 t b f;
#X msg 2520 265 10;
#X obj 2520 289 -, f 5;
#X obj 2520 313 / 2;
#X obj 2520 418 pack f \$0;
#X obj 2520 394 *, f 5;
#X obj 2520 337 t f b;
#X obj 2520 93 t a a, f 19;
#X obj 2650 118 pack s \$0;
#X msg 2552 367 7;
#X obj 19 34 r \$0-param_label;
#X obj 19 58 route 1 2 3 4 5 6 7 8, f 409;
#X obj 19 622 t b a;
#X obj 19 646 symbol;
#X obj 19 670 list fromsymbol;
#X obj 19 694 list length;
#X obj 19 598 else/any2symbol;
#X obj 19 721 t b f;
#X msg 19 745 10;
#X obj 19 769 -, f 5;
#X obj 19 793 / 2;
#X obj 19 898 pack f \$0;
#X obj 19 874 *, f 5;
#X obj 19 817 t f b;
#X obj 19 573 t a a, f 19;
#X obj 149 598 pack s \$0;
#X msg 51 847 7;
#X obj 376 622 t b a;
#X obj 376 646 symbol;
#X obj 376 670 list fromsymbol;
#X obj 376 694 list length;
#X obj 376 598 else/any2symbol;
#X obj 376 721 t b f;
#X msg 376 745 10;
#X obj 376 769 -, f 5;
#X obj 376 793 / 2;
#X obj 376 898 pack f \$0;
#X obj 376 874 *, f 5;
#X obj 376 817 t f b;
#X obj 376 573 t a a, f 19;
#X obj 506 598 pack s \$0;
#X msg 408 847 7;
#X obj 733 622 t b a;
#X obj 733 646 symbol;
#X obj 733 670 list fromsymbol;
#X obj 733 694 list length;
#X obj 733 598 else/any2symbol;
#X obj 733 721 t b f;
#X msg 733 745 10;
#X obj 733 769 -, f 5;
#X obj 733 793 / 2;
#X obj 733 898 pack f \$0;
#X obj 733 874 *, f 5;
#X obj 733 817 t f b;
#X obj 733 573 t a a, f 19;
#X obj 863 598 pack s \$0;
#X msg 765 847 7;
#X obj 1091 622 t b a;
#X obj 1091 646 symbol;
#X obj 1091 670 list fromsymbol;
#X obj 1091 694 list length;
#X obj 1091 598 else/any2symbol;
#X obj 1091 721 t b f;
#X msg 1091 745 10;
#X obj 1091 769 -, f 5;
#X obj 1091 793 / 2;
#X obj 1091 898 pack f \$0;
#X obj 1091 874 *, f 5;
#X obj 1091 817 t f b;
#X obj 1091 573 t a a, f 19;
#X obj 1221 598 pack s \$0;
#X msg 1123 847 7;
#X obj 1448 622 t b a;
#X obj 1448 646 symbol;
#X obj 1448 670 list fromsymbol;
#X obj 1448 694 list length;
#X obj 1448 598 else/any2symbol;
#X obj 1448 721 t b f;
#X msg 1448 745 10;
#X obj 1448 769 -, f 5;
#X obj 1448 793 / 2;
#X obj 1448 898 pack f \$0;
#X obj 1448 874 *, f 5;
#X obj 1448 817 t f b;
#X obj 1448 573 t a a, f 19;
#X obj 1578 598 pack s \$0;
#X msg 1480 847 7;
#X obj 1806 622 t b a, f 6;
#X obj 1806 646 symbol;
#X obj 1806 670 list fromsymbol;
#X obj 1806 694 list length;
#X obj 1806 598 else/any2symbol;
#X obj 1806 721 t b f;
#X msg 1806 745 10;
#X obj 1806 769 -, f 5;
#X obj 1806 793 / 2;
#X obj 1806 898 pack f \$0;
#X obj 1806 874 *, f 5;
#X obj 1806 817 t f b;
#X obj 1806 573 t a a, f 19;
#X obj 1936 598 pack s \$0;
#X msg 1838 847 7;
#X obj 2163 622 t b a;
#X obj 2163 646 symbol;
#X obj 2163 670 list fromsymbol;
#X obj 2163 694 list length;
#X obj 2163 598 else/any2symbol;
#X obj 2163 721 t b f;
#X msg 2163 745 10;
#X obj 2163 769 -, f 5;
#X obj 2163 793 / 2;
#X obj 2163 898 pack f \$0;
#X obj 2163 874 *, f 5;
#X obj 2163 817 t f b;
#X obj 2163 573 t a a, f 19;
#X obj 2293 598 pack s \$0;
#X msg 2195 847 7;
#X obj 2520 622 t b a;
#X obj 2520 646 symbol;
#X obj 2520 670 list fromsymbol;
#X obj 2520 694 list length;
#X obj 2520 598 else/any2symbol;
#X obj 2520 721 t b f;
#X msg 2520 745 10;
#X obj 2520 769 -, f 5;
#X obj 2520 793 / 2;
#X obj 2520 898 pack f \$0;
#X obj 2520 874 *, f 5;
#X obj 2520 817 t f b;
#X obj 2520 573 t a a, f 19;
#X obj 2650 598 pack s \$0;
#X msg 2552 847 7;
#X obj 19 514 r \$0-param_label;
#X obj 19 538 route 9 10 11 12 13 14 15 16, f 409;
#X msg 149 142 \; \$2-knb1-label-r label \$1;
#X msg 19 442 \; \$2-knb1-label-r label_pos \$1 10;
#X msg 506 142 \; \$2-knb2-label-r label \$1;
#X msg 376 442 \; \$2-knb2-label-r label_pos \$1 10;
#X msg 863 142 \; \$2-knb3-label-r label \$1;
#X msg 733 442 \; \$2-knb3-label-r label_pos \$1 10;
#X msg 1221 142 \; \$2-knb4-label-r label \$1;
#X msg 1091 442 \; \$2-knb4-label-r label_pos \$1 10;
#X msg 1578 142 \; \$2-knb5-label-r label \$1;
#X msg 1448 442 \; \$2-knb5-label-r label_pos \$1 10;
#X msg 1936 142 \; \$2-knb6-label-r label \$1;
#X msg 2163 442 \; \$2-knb7-label-r label_pos \$1 10;
#X msg 2293 142 \; \$2-knb7-label-r label \$1;
#X msg 1806 442 \; \$2-knb6-label-r label_pos \$1 10;
#X msg 2650 142 \; \$2-knb8-label-r label \$1;
#X msg 2520 442 \; \$2-knb8-label-r label_pos \$1 10;
#X msg 149 622 \; \$2-vsl1-label-r label \$1;
#X msg 19 922 \; \$2-vsl1-label-r label_pos \$1 10;
#X msg 506 622 \; \$2-vsl2-label-r label \$1;
#X msg 376 922 \; \$2-vsl2-label-r label_pos \$1 10;
#X msg 863 622 \; \$2-vsl3-label-r label \$1;
#X msg 733 922 \; \$2-vsl3-label-r label_pos \$1 10;
#X msg 1221 622 \; \$2-vsl4-label-r label \$1;
#X msg 1091 922 \; \$2-vsl4-label-r label_pos \$1 10;
#X msg 1578 622 \; \$2-vsl5-label-r label \$1;
#X msg 1448 922 \; \$2-vsl5-label-r label_pos \$1 10;
#X msg 1936 622 \; \$2-vsl6-label-r label \$1;
#X msg 1806 922 \; \$2-vsl6-label-r label_pos \$1 10;
#X msg 2293 622 \; \$2-vsl7-label-r label \$1;
#X msg 2163 922 \; \$2-vsl7-label-r label_pos \$1 10;
#X msg 2650 622 \; \$2-vsl8-label-r label \$1;
#X msg 2520 922 \; \$2-vsl8-label-r label_pos \$1 10;
#X connect 0 0 1 0;
#X connect 0 1 1 1;
#X connect 1 0 2 0;
#X connect 2 0 3 0;
#X connect 3 0 5 0;
#X connect 4 0 0 0;
#X connect 5 0 6 0;
#X connect 5 1 7 1;
#X connect 6 0 7 0;
#X connect 7 0 8 0;
#X connect 8 0 11 0;
#X connect 9 0 245 0;
#X connect 10 0 9 0;
#X connect 11 0 10 0;
#X connect 11 1 14 0;
#X connect 12 0 4 0;
#X connect 12 1 13 0;
#X connect 13 0 244 0;
#X connect 14 0 10 1;
#X connect 15 0 16 0;
#X connect 15 1 16 1;
#X connect 16 0 17 0;
#X connect 17 0 18 0;
#X connect 18 0 20 0;
#X connect 19 0 15 0;
#X connect 20 0 21 0;
#X connect 20 1 22 1;
#X connect 21 0 22 0;
#X connect 22 0 23 0;
#X connect 23 0 26 0;
#X connect 24 0 247 0;
#X connect 25 0 24 0;
#X connect 26 0 25 0;
#X connect 26 1 29 0;
#X connect 27 0 19 0;
#X connect 27 1 28 0;
#X connect 28 0 246 0;
#X connect 29 0 25 1;
#X connect 30 0 31 0;
#X connect 30 1 31 1;
#X connect 31 0 32 0;
#X connect 32 0 33 0;
#X connect 33 0 35 0;
#X connect 34 0 30 0;
#X connect 35 0 36 0;
#X connect 35 1 37 1;
#X connect 36 0 37 0;
#X connect 37 0 38 0;
#X connect 38 0 41 0;
#X connect 39 0 249 0;
#X connect 40 0 39 0;
#X connect 41 0 40 0;
#X connect 41 1 44 0;
#X connect 42 0 34 0;
#X connect 42 1 43 0;
#X connect 43 0 248 0;
#X connect 44 0 40 1;
#X connect 45 0 46 0;
#X connect 45 1 46 1;
#X connect 46 0 47 0;
#X connect 47 0 48 0;
#X connect 48 0 50 0;
#X connect 49 0 45 0;
#X connect 50 0 51 0;
#X connect 50 1 52 1;
#X connect 51 0 52 0;
#X connect 52 0 53 0;
#X connect 53 0 56 0;
#X connect 54 0 251 0;
#X connect 55 0 54 0;
#X connect 56 0 55 0;
#X connect 56 1 59 0;
#X connect 57 0 49 0;
#X connect 57 1 58 0;
#X connect 58 0 250 0;
#X connect 59 0 55 1;
#X connect 60 0 61 0;
#X connect 60 1 61 1;
#X connect 61 0 62 0;
#X connect 62 0 63 0;
#X connect 63 0 65 0;
#X connect 64 0 60 0;
#X connect 65 0 66 0;
#X connect 65 1 67 1;
#X connect 66 0 67 0;
#X connect 67 0 68 0;
#X connect 68 0 71 0;
#X connect 69 0 253 0;
#X connect 70 0 69 0;
#X connect 71 0 70 0;
#X connect 71 1 74 0;
#X connect 72 0 64 0;
#X connect 72 1 73 0;
#X connect 73 0 252 0;
#X connect 74 0 70 1;
#X connect 75 0 76 0;
#X connect 75 1 76 1;
#X connect 76 0 77 0;
#X connect 77 0 78 0;
#X connect 78 0 80 0;
#X connect 79 0 75 0;
#X connect 80 0 81 0;
#X connect 80 1 82 1;
#X connect 81 0 82 0;
#X connect 82 0 83 0;
#X connect 83 0 86 0;
#X connect 84 0 257 0;
#X connect 85 0 84 0;
#X connect 86 0 85 0;
#X connect 86 1 89 0;
#X connect 87 0 79 0;
#X connect 87 1 88 0;
#X connect 88 0 254 0;
#X connect 89 0 85 1;
#X connect 90 0 91 0;
#X connect 90 1 91 1;
#X connect 91 0 92 0;
#X connect 92 0 93 0;
#X connect 93 0 95 0;
#X connect 94 0 90 0;
#X connect 95 0 96 0;
#X connect 95 1 97 1;
#X connect 96 0 97 0;
#X connect 97 0 98 0;
#X connect 98 0 101 0;
#X connect 99 0 255 0;
#X connect 100 0 99 0;
#X connect 101 0 100 0;
#X connect 101 1 104 0;
#X connect 102 0 94 0;
#X connect 102 1 103 0;
#X connect 103 0 256 0;
#X connect 104 0 100 1;
#X connect 105 0 106 0;
#X connect 105 1 106 1;
#X connect 106 0 107 0;
#X connect 107 0 108 0;
#X connect 108 0 110 0;
#X connect 109 0 105 0;
#X connect 110 0 111 0;
#X connect 110 1 112 1;
#X connect 111 0 112 0;
#X connect 112 0 113 0;
#X connect 113 0 116 0;
#X connect 114 0 259 0;
#X connect 115 0 114 0;
#X connect 116 0 115 0;
#X connect 116 1 119 0;
#X connect 117 0 109 0;
#X connect 117 1 118 0;
#X connect 118 0 258 0;
#X connect 119 0 115 1;
#X connect 120 0 121 0;
#X connect 121 0 12 0;
#X connect 121 1 27 0;
#X connect 121 2 42 0;
#X connect 121 3 57 0;
#X connect 121 4 72 0;
#X connect 121 5 87 0;
#X connect 121 6 102 0;
#X connect 121 7 117 0;
#X connect 122 0 123 0;
#X connect 122 1 123 1;
#X connect 123 0 124 0;
#X connect 124 0 125 0;
#X connect 125 0 127 0;
#X connect 126 0 122 0;
#X connect 127 0 128 0;
#X connect 127 1 129 1;
#X connect 128 0 129 0;
#X connect 129 0 130 0;
#X connect 130 0 133 0;
#X connect 131 0 261 0;
#X connect 132 0 131 0;
#X connect 133 0 132 0;
#X connect 133 1 136 0;
#X connect 134 0 126 0;
#X connect 134 1 135 0;
#X connect 135 0 260 0;
#X connect 136 0 132 1;
#X connect 137 0 138 0;
#X connect 137 1 138 1;
#X connect 138 0 139 0;
#X connect 139 0 140 0;
#X connect 140 0 142 0;
#X connect 141 0 137 0;
#X connect 142 0 143 0;
#X connect 142 1 144 1;
#X connect 143 0 144 0;
#X connect 144 0 145 0;
#X connect 145 0 148 0;
#X connect 146 0 263 0;
#X connect 147 0 146 0;
#X connect 148 0 147 0;
#X connect 148 1 151 0;
#X connect 149 0 141 0;
#X connect 149 1 150 0;
#X connect 150 0 262 0;
#X connect 151 0 147 1;
#X connect 152 0 153 0;
#X connect 152 1 153 1;
#X connect 153 0 154 0;
#X connect 154 0 155 0;
#X connect 155 0 157 0;
#X connect 156 0 152 0;
#X connect 157 0 158 0;
#X connect 157 1 159 1;
#X connect 158 0 159 0;
#X connect 159 0 160 0;
#X connect 160 0 163 0;
#X connect 161 0 265 0;
#X connect 162 0 161 0;
#X connect 163 0 162 0;
#X connect 163 1 166 0;
#X connect 164 0 156 0;
#X connect 164 1 165 0;
#X connect 165 0 264 0;
#X connect 166 0 162 1;
#X connect 167 0 168 0;
#X connect 167 1 168 1;
#X connect 168 0 169 0;
#X connect 169 0 170 0;
#X connect 170 0 172 0;
#X connect 171 0 167 0;
#X connect 172 0 173 0;
#X connect 172 1 174 1;
#X connect 173 0 174 0;
#X connect 174 0 175 0;
#X connect 175 0 178 0;
#X connect 176 0 267 0;
#X connect 177 0 176 0;
#X connect 178 0 177 0;
#X connect 178 1 181 0;
#X connect 179 0 171 0;
#X connect 179 1 180 0;
#X connect 180 0 266 0;
#X connect 181 0 177 1;
#X connect 182 0 183 0;
#X connect 182 1 183 1;
#X connect 183 0 184 0;
#X connect 184 0 185 0;
#X connect 185 0 187 0;
#X connect 186 0 182 0;
#X connect 187 0 188 0;
#X connect 187 1 189 1;
#X connect 188 0 189 0;
#X connect 189 0 190 0;
#X connect 190 0 193 0;
#X connect 191 0 269 0;
#X connect 192 0 191 0;
#X connect 193 0 192 0;
#X connect 193 1 196 0;
#X connect 194 0 186 0;
#X connect 194 1 195 0;
#X connect 195 0 268 0;
#X connect 196 0 192 1;
#X connect 197 0 198 0;
#X connect 197 1 198 1;
#X connect 198 0 199 0;
#X connect 199 0 200 0;
#X connect 200 0 202 0;
#X connect 201 0 197 0;
#X connect 202 0 203 0;
#X connect 202 1 204 1;
#X connect 203 0 204 0;
#X connect 204 0 205 0;
#X connect 205 0 208 0;
#X connect 206 0 271 0;
#X connect 207 0 206 0;
#X connect 208 0 207 0;
#X connect 208 1 211 0;
#X connect 209 0 201 0;
#X connect 209 1 210 0;
#X connect 210 0 270 0;
#X connect 211 0 207 1;
#X connect 212 0 213 0;
#X connect 212 1 213 1;
#X connect 213 0 214 0;
#X connect 214 0 215 0;
#X connect 215 0 217 0;
#X connect 216 0 212 0;
#X connect 217 0 218 0;
#X connect 217 1 219 1;
#X connect 218 0 219 0;
#X connect 219 0 220 0;
#X connect 220 0 223 0;
#X connect 221 0 273 0;
#X connect 222 0 221 0;
#X connect 223 0 222 0;
#X connect 223 1 226 0;
#X connect 224 0 216 0;
#X connect 224 1 225 0;
#X connect 225 0 272 0;
#X connect 226 0 222 1;
#X connect 227 0 228 0;
#X connect 227 1 228 1;
#X connect 228 0 229 0;
#X connect 229 0 230 0;
#X connect 230 0 232 0;
#X connect 231 0 227 0;
#X connect 232 0 233 0;
#X connect 232 1 234 1;
#X connect 233 0 234 0;
#X connect 234 0 235 0;
#X connect 235 0 238 0;
#X connect 236 0 275 0;
#X connect 237 0 236 0;
#X connect 238 0 237 0;
#X connect 238 1 241 0;
#X connect 239 0 231 0;
#X connect 239 1 240 0;
#X connect 240 0 274 0;
#X connect 241 0 237 1;
#X connect 242 0 243 0;
#X connect 243 0 134 0;
#X connect 243 1 149 0;
#X connect 243 2 164 0;
#X connect 243 3 179 0;
#X connect 243 4 194 0;
#X connect 243 5 209 0;
#X connect 243 6 224 0;
#X connect 243 7 239 0;
#X restore 140 122 pd labels;
#X restore 1531 92 pd gui;
#X obj 1554 134 inlet Port;
#X obj 1532 162 loadbang;
#X obj 1532 186 f \$1;
#X obj 503 82 cnv 15 75 19 empty \$0-knb2-label-r empty 0 10 0 14 #dfdfdf #404040 0;
#X obj 647 82 cnv 15 75 19 empty \$0-knb3-label-r empty 0 10 0 14 #dfdfdf #404040 0;
#X obj 791 82 cnv 15 75 19 empty \$0-knb4-label-r empty 0 10 0 14 #dfdfdf #404040 0;
#X obj 933 82 cnv 15 75 19 empty \$0-knb5-label-r \  31 10 0 14 #dfdfdf #404040 0;
#X obj 1076 82 cnv 15 75 19 empty \$0-knb6-label-r empty 0 10 0 14 #dfdfdf #404040 0;
#X obj 1220 82 cnv 15 75 19 empty \$0-knb7-label-r empty 0 10 0 14 #dfdfdf #404040 0;
#X obj 1364 82 cnv 15 75 19 empty \$0-knb8-label-r empty 0 10 0 14 #dfdfdf #404040 0;
#X obj 360 279 cnv 15 75 19 empty \$0-vsl1-label-r empty 0 10 0 14 #dfdfdf #404040 0;
#X obj 503 279 cnv 15 75 19 empty \$0-vsl2-label-r empty 0 10 0 14 #dfdfdf #404040 0;
#X obj 647 279 cnv 15 75 19 empty \$0-vsl3-label-r empty 0 10 0 14 #dfdfdf #404040 0;
#X obj 791 279 cnv 15 75 19 empty \$0-vsl4-label-r empty 0 10 0 14 #dfdfdf #404040 0;
#X obj 933 279 cnv 15 75 19 empty \$0-vsl5-label-r empty 0 10 0 14 #dfdfdf #404040 0;
#X obj 1076 279 cnv 15 75 19 empty \$0-vsl6-label-r empty 0 10 0 14 #dfdfdf #404040 0;
#X obj 1220 279 cnv 15 75 19 empty \$0-vsl7-label-r empty 0 10 0 14 #dfdfdf #404040 0;
#X obj 1364 279 cnv 15 75 19 empty \$0-vsl8-label-r empty 0 10 0 14 #dfdfdf #404040 0;
#X obj 382 9 cnv 5 5 5 empty empty 1 10 12 0 14 #404040 #dfdfdf 0;
#X obj 526 9 cnv 5 5 5 empty empty 2 10 12 0 14 #404040 #dfdfdf 0;
#X obj 670 9 cnv 5 5 5 empty empty 3 10 12 0 14 #404040 #dfdfdf 0;
#X obj 814 9 cnv 5 5 5 empty empty 4 10 12 0 14 #404040 #dfdfdf 0;
#X obj 958 9 cnv 5 5 5 empty empty 5 10 12 0 14 #404040 #dfdfdf 0;
#X obj 1102 9 cnv 5 5 5 empty empty 6 10 12 0 14 #404040 #dfdfdf 0;
#X obj 1246 9 cnv 5 5 5 empty empty 7 10 12 0 14 #404040 #dfdfdf 0;
#X obj 1390 9 cnv 5 5 5 empty empty 8 10 12 0 14 #404040 #dfdfdf 0;
#X obj 299 140 cnv 5 5 5 empty empty 17 10 12 0 14 #404040 #dfdfdf 0;
#X obj 299 180 cnv 5 5 5 empty empty 25 10 12 0 14 #404040 #dfdfdf 0;
#X obj 299 220 cnv 5 5 5 empty empty 33 10 12 0 14 #404040 #dfdfdf 0;
#X obj 443 140 cnv 5 5 5 empty empty 18 10 12 0 14 #404040 #dfdfdf 0;
#X obj 443 180 cnv 5 5 5 empty empty 26 10 12 0 14 #404040 #dfdfdf 0;
#X obj 443 220 cnv 5 5 5 empty empty 34 10 12 0 14 #404040 #dfdfdf 0;
#X obj 587 140 cnv 5 5 5 empty empty 19 10 12 0 14 #404040 #dfdfdf 0;
#X obj 587 180 cnv 5 5 5 empty empty 27 10 12 0 14 #404040 #dfdfdf 0;
#X obj 587 220 cnv 5 5 5 empty empty 35 10 12 0 14 #404040 #dfdfdf 0;
#X obj 731 140 cnv 5 5 5 empty empty 20 10 12 0 14 #404040 #dfdfdf 0;
#X obj 731 180 cnv 5 5 5 empty empty 28 10 12 0 14 #404040 #dfdfdf 0;
#X obj 731 220 cnv 5 5 5 empty empty 36 10 12 0 14 #404040 #dfdfdf 0;
#X obj 875 140 cnv 5 5 5 empty empty 21 10 12 0 14 #404040 #dfdfdf 0;
#X obj 875 180 cnv 5 5 5 empty empty 29 10 12 0 14 #404040 #dfdfdf 0;
#X obj 875 220 cnv 5 5 5 empty empty 37 10 12 0 14 #404040 #dfdfdf 0;
#X obj 1019 140 cnv 5 5 5 empty empty 22 10 12 0 14 #404040 #dfdfdf 0;
#X obj 1019 180 cnv 5 5 5 empty empty 30 10 12 0 14 #404040 #dfdfdf 0;
#X obj 1019 220 cnv 5 5 5 empty empty 38 10 12 0 14 #404040 #dfdfdf 0;
#X obj 1163 140 cnv 5 5 5 empty empty 23 10 12 0 14 #404040 #dfdfdf 0;
#X obj 1163 180 cnv 5 5 5 empty empty 31 10 12 0 14 #404040 #dfdfdf 0;
#X obj 1163 220 cnv 5 5 5 empty empty 39 10 12 0 14 #404040 #dfdfdf 0;
#X obj 1307 140 cnv 5 5 5 empty empty 24 10 12 0 14 #404040 #dfdfdf 0;
#X obj 1307 180 cnv 5 5 5 empty empty 32 10 12 0 14 #404040 #dfdfdf 0;
#X obj 1307 220 cnv 5 5 5 empty empty 40 10 12 0 14 #404040 #dfdfdf 0;
#X obj 1544 354 r \$0-param_index;
#N canvas 441 32 1216 609 param_index-out 0;
#X obj 28 78 int;
#X obj 28 102 list prepend 1;
#X obj 28 54 r \$0-knb1-s;
#X obj 1069 121 s \$0-param_index;
#X obj 158 78 int;
#X obj 278 78 int;
#X obj 408 78 int;
#X obj 538 78 int;
#X obj 668 78 int;
#X obj 788 78 int;
#X obj 918 78 int;
#X obj 158 54 r \$0-knb2-s;
#X obj 278 54 r \$0-knb3-s;
#X obj 408 54 r \$0-knb4-s;
#X obj 538 54 r \$0-knb5-s;
#X obj 668 54 r \$0-knb6-s;
#X obj 788 54 r \$0-knb7-s;
#X obj 918 54 r \$0-knb8-s;
#X obj 28 188 int;
#X obj 1069 231 s \$0-param_index;
#X obj 158 188 int;
#X obj 278 188 int;
#X obj 408 188 int;
#X obj 538 188 int;
#X obj 668 188 int;
#X obj 788 188 int;
#X obj 918 188 int;
#X obj 28 164 r \$0-vsl1-s;
#X obj 158 164 r \$0-vsl2-s;
#X obj 278 164 r \$0-vsl3-s;
#X obj 408 164 r \$0-vsl4-s;
#X obj 538 164 r \$0-vsl5-s;
#X obj 668 164 r \$0-vsl6-s;
#X obj 788 164 r \$0-vsl7-s;
#X obj 918 164 r \$0-vsl8-s;
#X obj 158 102 list prepend 2;
#X obj 278 102 list prepend 3;
#X obj 408 102 list prepend 4;
#X obj 538 102 list prepend 5;
#X obj 668 102 list prepend 6;
#X obj 788 102 list prepend 7;
#X obj 918 102 list prepend 8;
#X obj 28 212 list prepend 9;
#X obj 158 212 list prepend 10;
#X obj 278 212 list prepend 11;
#X obj 408 212 list prepend 12;
#X obj 538 212 list prepend 13;
#X obj 668 212 list prepend 14;
#X obj 788 212 list prepend 15;
#X obj 918 212 list prepend 16;
#X obj 28 288 int;
#X obj 1069 331 s \$0-param_index;
#X obj 158 288 int;
#X obj 278 288 int;
#X obj 408 288 int;
#X obj 538 288 int;
#X obj 668 288 int;
#X obj 788 288 int;
#X obj 918 288 int;
#X obj 28 264 r \$0-tgl1-s-s;
#X obj 28 378 int;
#X obj 1069 421 s \$0-param_index;
#X obj 158 378 int;
#X obj 278 378 int;
#X obj 408 378 int;
#X obj 538 378 int;
#X obj 668 378 int;
#X obj 788 378 int;
#X obj 918 378 int;
#X obj 28 478 int;
#X obj 1069 521 s \$0-param_index;
#X obj 158 478 int;
#X obj 278 478 int;
#X obj 408 478 int;
#X obj 538 478 int;
#X obj 668 478 int;
#X obj 788 478 int;
#X obj 918 478 int;
#X obj 28 312 list prepend 17;
#X obj 158 312 list prepend 18;
#X obj 278 312 list prepend 19;
#X obj 408 312 list prepend 20;
#X obj 538 312 list prepend 21;
#X obj 668 312 list prepend 22;
#X obj 788 312 list prepend 23;
#X obj 918 312 list prepend 24;
#X obj 28 402 list prepend 25;
#X obj 158 402 list prepend 26;
#X obj 278 402 list prepend 27;
#X obj 408 402 list prepend 28;
#X obj 538 402 list prepend 29;
#X obj 668 402 list prepend 30;
#X obj 788 402 list prepend 31;
#X obj 918 402 list prepend 32;
#X obj 28 502 list prepend 33;
#X obj 158 502 list prepend 34;
#X obj 278 502 list prepend 35;
#X obj 408 502 list prepend 36;
#X obj 538 502 list prepend 37;
#X obj 668 502 list prepend 38;
#X obj 788 502 list prepend 39;
#X obj 918 502 list prepend 40;
#X obj 158 264 r \$0-tgl2-s-s;
#X obj 278 264 r \$0-tgl3-s-s;
#X obj 408 264 r \$0-tgl4-s-s;
#X obj 538 264 r \$0-tgl5-s-s;
#X obj 668 264 r \$0-tgl6-s-s;
#X obj 788 264 r \$0-tgl7-s-s;
#X obj 918 264 r \$0-tgl8-s-s;
#X obj 28 354 r \$0-tgl1-m-s;
#X obj 158 354 r \$0-tgl2-m-s;
#X obj 278 354 r \$0-tgl3-m-s;
#X obj 408 354 r \$0-tgl4-m-s;
#X obj 538 354 r \$0-tgl5-m-s;
#X obj 668 354 r \$0-tgl6-m-s;
#X obj 788 354 r \$0-tgl7-m-s;
#X obj 918 354 r \$0-tgl8-m-s;
#X obj 28 454 r \$0-tgl1-r-s;
#X obj 158 454 r \$0-tgl2-r-s;
#X obj 278 454 r \$0-tgl3-r-s;
#X obj 408 454 r \$0-tgl4-r-s;
#X obj 538 454 r \$0-tgl5-r-s;
#X obj 668 454 r \$0-tgl6-r-s;
#X obj 788 454 r \$0-tgl7-r-s;
#X obj 918 454 r \$0-tgl8-r-s;
#X connect 0 0 1 0;
#X connect 1 0 3 0;
#X connect 2 0 0 0;
#X connect 4 0 35 0;
#X connect 5 0 36 0;
#X connect 6 0 37 0;
#X connect 7 0 38 0;
#X connect 8 0 39 0;
#X connect 9 0 40 0;
#X connect 10 0 41 0;
#X connect 11 0 4 0;
#X connect 12 0 5 0;
#X connect 13 0 6 0;
#X connect 14 0 7 0;
#X connect 15 0 8 0;
#X connect 16 0 9 0;
#X connect 17 0 10 0;
#X connect 18 0 42 0;
#X connect 20 0 43 0;
#X connect 21 0 44 0;
#X connect 22 0 45 0;
#X connect 23 0 46 0;
#X connect 24 0 47 0;
#X connect 25 0 48 0;
#X connect 26 0 49 0;
#X connect 27 0 18 0;
#X connect 28 0 20 0;
#X connect 29 0 21 0;
#X connect 30 0 22 0;
#X connect 31 0 23 0;
#X connect 32 0 24 0;
#X connect 33 0 25 0;
#X connect 34 0 26 0;
#X connect 35 0 3 0;
#X connect 36 0 3 0;
#X connect 37 0 3 0;
#X connect 38 0 3 0;
#X connect 39 0 3 0;
#X connect 40 0 3 0;
#X connect 41 0 3 0;
#X connect 42 0 19 0;
#X connect 43 0 19 0;
#X connect 44 0 19 0;
#X connect 45 0 19 0;
#X connect 46 0 19 0;
#X connect 47 0 19 0;
#X connect 48 0 19 0;
#X connect 49 0 19 0;
#X connect 50 0 78 0;
#X connect 52 0 79 0;
#X connect 53 0 80 0;
#X connect 54 0 81 0;
#X connect 55 0 82 0;
#X connect 56 0 83 0;
#X connect 57 0 84 0;
#X connect 58 0 85 0;
#X connect 59 0 50 0;
#X connect 60 0 86 0;
#X connect 62 0 87 0;
#X connect 63 0 88 0;
#X connect 64 0 89 0;
#X connect 65 0 90 0;
#X connect 66 0 91 0;
#X connect 67 0 92 0;
#X connect 68 0 93 0;
#X connect 69 0 94 0;
#X connect 71 0 95 0;
#X connect 72 0 96 0;
#X connect 73 0 97 0;
#X connect 74 0 98 0;
#X connect 75 0 99 0;
#X connect 76 0 100 0;
#X connect 77 0 101 0;
#X connect 78 0 51 0;
#X connect 79 0 51 0;
#X connect 80 0 51 0;
#X connect 81 0 51 0;
#X connect 82 0 51 0;
#X connect 83 0 51 0;
#X connect 84 0 51 0;
#X connect 85 0 51 0;
#X connect 86 0 61 0;
#X connect 87 0 61 0;
#X connect 88 0 61 0;
#X connect 89 0 61 0;
#X connect 90 0 61 0;
#X connect 91 0 61 0;
#X connect 92 0 61 0;
#X connect 93 0 61 0;
#X connect 94 0 70 0;
#X connect 95 0 70 0;
#X connect 96 0 70 0;
#X connect 97 0 70 0;
#X connect 98 0 70 0;
#X connect 99 0 70 0;
#X connect 100 0 70 0;
#X connect 101 0 70 0;
#X connect 102 0 52 0;
#X connect 103 0 53 0;
#X connect 104 0 54 0;
#X connect 105 0 55 0;
#X connect 106 0 56 0;
#X connect 107 0 57 0;
#X connect 108 0 58 0;
#X connect 109 0 60 0;
#X connect 110 0 62 0;
#X connect 111 0 63 0;
#X connect 112 0 64 0;
#X connect 113 0 65 0;
#X connect 114 0 66 0;
#X connect 115 0 67 0;
#X connect 116 0 68 0;
#X connect 117 0 69 0;
#X connect 118 0 71 0;
#X connect 119 0 72 0;
#X connect 120 0 73 0;
#X connect 121 0 74 0;
#X connect 122 0 75 0;
#X connect 123 0 76 0;
#X connect 124 0 77 0;
#X restore 1533 54 pd param_index-out;
#X obj 15 351 inlet To-Control;
#X obj 15 375 route param_set param_label, f 51;
#X obj 192 408 s \$0-param_label;
#X obj 15 406 s \$0-param_set;
#X obj 1544 379 outlet From-Control;
#N canvas 7 206 1771 609 param_index-in 0;
#X obj 24 39 r \$0-param_set;
#X obj 24 63 route 1 2 3 4 5 6 7 8 9 10 11 12 13 14 15 16 17 18 19 20 21 22 23 24 25 26 27 28 29 30 31 32 33 34 35 36 37 38 39 40, f 230;
#X obj 24 87 int;
#X obj 64 137 int;
#X obj 104 197 int;
#X obj 144 247 int;
#X obj 184 307 int;
#X obj 224 367 int;
#X obj 265 427 int;
#X obj 305 487 int;
#X obj 345 87 int;
#X obj 385 137 int;
#X obj 425 197 int;
#X obj 466 247 int;
#X obj 506 307 int;
#X obj 546 367 int;
#X obj 586 427 int;
#X obj 626 487 int;
#X obj 666 87 int;
#X obj 706 137 int;
#X obj 747 197 int;
#X obj 787 247 int;
#X obj 827 307 int;
#X obj 867 367 int;
#X obj 907 427 int;
#X obj 948 487 int;
#X obj 988 87 int;
#X obj 1028 137 int;
#X obj 1068 197 int;
#X obj 1109 247 int;
#X obj 1148 307 int;
#X obj 1188 367 int;
#X obj 1229 427 int;
#X obj 1269 487 int;
#X obj 1309 87 int;
#X obj 1349 137 int;
#X obj 1389 197 int;
#X obj 1430 247 int;
#X obj 1470 307 int;
#X obj 1510 367 int;
#X obj 1550 427 int;
#X obj 1590 487 int;
#X obj 24 111 s \$0-knb1-r;
#X obj 64 161 s \$0-knb2-r;
#X obj 104 221 s \$0-knb3-r;
#X obj 144 271 s \$0-knb4-r;
#X obj 184 331 s \$0-knb5-r;
#X obj 224 391 s \$0-knb6-r;
#X obj 265 451 s \$0-knb7-r;
#X obj 305 511 s \$0-knb8-r;
#X obj 345 111 s \$0-vsl1-r;
#X obj 385 161 s \$0-vsl2-r;
#X obj 425 221 s \$0-vsl3-r;
#X obj 466 271 s \$0-vsl4-r;
#X obj 506 331 s \$0-vsl5-r;
#X obj 586 451 s \$0-vsl7-r;
#X obj 626 511 s \$0-vsl8-r;
#X obj 546 391 s \$0-vsl6-r;
#X obj 948 511 s \$0-tgl8-s-r;
#X obj 907 451 s \$0-tgl7-s-r;
#X obj 867 391 s \$0-tgl6-s-r;
#X obj 827 331 s \$0-tgl5-s-r;
#X obj 787 271 s \$0-tgl4-s-r;
#X obj 747 221 s \$0-tgl3-s-r;
#X obj 705 161 s \$0-tgl2-s-r;
#X obj 666 111 s \$0-tgl1-s-r;
#X obj 1590 511 s \$0-tgl8-r-r;
#X obj 1550 451 s \$0-tgl7-r-r;
#X obj 1510 391 s \$0-tgl6-r-r;
#X obj 1470 331 s \$0-tgl5-r-r;
#X obj 1430 271 s \$0-tgl4-r-r;
#X obj 1389 221 s \$0-tgl3-r-r;
#X obj 1348 161 s \$0-tgl2-r-r;
#X obj 1309 111 s \$0-tgl1-r-r;
#X obj 988 111 s \$0-tgl1-m-r;
#X obj 1027 161 s \$0-tgl2-m-r;
#X obj 1068 221 s \$0-tgl3-m-r;
#X obj 1109 271 s \$0-tgl4-m-r;
#X obj 1148 331 s \$0-tgl5-m-r;
#X obj 1188 391 s \$0-tgl6-m-r;
#X obj 1229 451 s \$0-tgl7-m-r;
#X obj 1269 511 s \$0-tgl8-m-r;
#X connect 0 0 1 0;
#X connect 1 0 2 0;
#X connect 1 1 3 0;
#X connect 1 2 4 0;
#X connect 1 3 5 0;
#X connect 1 4 6 0;
#X connect 1 5 7 0;
#X connect 1 6 8 0;
#X connect 1 7 9 0;
#X connect 1 8 10 0;
#X connect 1 9 11 0;
#X connect 1 10 12 0;
#X connect 1 11 13 0;
#X connect 1 12 14 0;
#X connect 1 13 15 0;
#X connect 1 14 16 0;
#X connect 1 15 17 0;
#X connect 1 16 18 0;
#X connect 1 17 19 0;
#X connect 1 18 20 0;
#X connect 1 19 21 0;
#X connect 1 20 22 0;
#X connect 1 21 23 0;
#X connect 1 22 24 0;
#X connect 1 23 25 0;
#X connect 1 24 26 0;
#X connect 1 25 27 0;
#X connect 1 26 28 0;
#X connect 1 27 29 0;
#X connect 1 28 30 0;
#X connect 1 29 31 0;
#X connect 1 30 32 0;
#X connect 1 31 33 0;
#X connect 1 32 34 0;
#X connect 1 33 35 0;
#X connect 1 34 36 0;
#X connect 1 35 37 0;
#X connect 1 36 38 0;
#X connect 1 37 39 0;
#X connect 1 38 40 0;
#X connect 1 39 41 0;
#X connect 2 0 42 0;
#X connect 3 0 43 0;
#X connect 4 0 44 0;
#X connect 5 0 45 0;
#X connect 6 0 46 0;
#X connect 7 0 47 0;
#X connect 8 0 48 0;
#X connect 9 0 49 0;
#X connect 10 0 50 0;
#X connect 11 0 51 0;
#X connect 12 0 52 0;
#X connect 13 0 53 0;
#X connect 14 0 54 0;
#X connect 15 0 57 0;
#X connect 16 0 55 0;
#X connect 17 0 56 0;
#X connect 18 0 65 0;
#X connect 19 0 64 0;
#X connect 20 0 63 0;
#X connect 21 0 62 0;
#X connect 22 0 61 0;
#X connect 23 0 60 0;
#X connect 24 0 59 0;
#X connect 25 0 58 0;
#X connect 26 0 74 0;
#X connect 27 0 75 0;
#X connect 28 0 76 0;
#X connect 29 0 77 0;
#X connect 30 0 78 0;
#X connect 31 0 79 0;
#X connect 32 0 80 0;
#X connect 33 0 81 0;
#X connect 34 0 73 0;
#X connect 35 0 72 0;
#X connect 36 0 71 0;
#X connect 37 0 70 0;
#X connect 38 0 69 0;
#X connect 39 0 68 0;
#X connect 40 0 67 0;
#X connect 41 0 66 0;
#X restore 1533 19 pd param_index-in;
#X obj 1312 365 outlet Start;
#X obj 1330 388 outlet Pulse;
#X obj 1349 416 outlet Counter;
#X obj 1368 443 outlet Counter-Shuffle;
#X obj 1386 472 outlet Inspector[list];
#X obj 406 346 cnv 19 450 186 empty empty empty 20 12 0 12 #e0e0e0 #404040 0;
#X text 425 407 out1: start (0 \, 1);
#X text 425 427 out2: pulse (sixteenth note in ms);
#X text 425 447 out3: counter;
#X text 425 467 out4: counter with shuffle;
#X text 425 487 out5: inspector (list);
#X text 425 507 out6: from controller (send midi to parent patch);
#X text 425 357 in1: to controller (receive midi from parent patch);
#X text 425 377 in2/arg1: port number (allocate port from preferences);
#N canvas 270 121 1059 830 operation_info 0;
#X text 537 144 Note that by default \, knobs parameters have a range of (0 \, 127) while toggles are ranged (0 \, 1) to be coherent with the Korg Patch Editor settings.;
#X text 40 38 This device is a template of the Korg Nanokontrol2 controller and it is designed to be loaded in a patch to controller its parameters while is also possible to send data to the controller., f 129;
#X text 40 78 IMPORTANT: In order to use it properly \, YOU HAVE TO USE IT WITH THE KORG EDITOR TEMPLATE PROVIDED. Also you will need to state the port number the device is connected to (see MIDI preferences) \, this can be done through abstraction arguments or the second inlet., f 129;
#X msg 73 507 param_set 9 64;
#X msg 209 598 param_label 9 Filter;
#X text 382 576 e.g: with this message placed in the parent patch \, it will send MIDI data to the controller to set labels to its parameters \, in this case it will send to parameter 9 the label "Filter".;
#X text 193 490 e.g: with this message placed in the parent patch \, it will send MIDI data to the controller \, in this case it will send to parameter 9 the value "64".;
#X obj 122 283 r \$0-param_index-s;
#X floatatom 122 340 0 0 0 0 - - - 0;
#X obj 122 311 route 9;
#X text 283 303 e.g: in this case \, parameter 9 will receives the value from the controller.;
#X text 26 797 SEE HELP FILES FOR FURTHER INFORMATION;
#X text 36 208 [korg.nanokontrol2] can send MIDI data to the parent patch to control its parameters.;
#X text 36 418 [korg.nanokontrol2] can also receives MIDI data from a parent patch to control its parameters.;
#X text 562 702 NOTE!!! Parameters without a number don't send data directly to the patch \, note that transport parameters don't work as mentioned above \, they take the control over the patch through a transport system instead \, that's why you have to use the outputs of the abstraction.;
#X text 29 702 This abstractions count with a built-in savestate system but labels have to be saved by loadbangering messages from the parent patch.;
#X connect 7 0 9 0;
#X connect 9 0 8 0;
#X restore 1532 244 pd operation_info;
#X obj 2 2 cnv 2 10 3 empty empty Receive 0 10 0 10 #e0e0e0 #dfdfdf 0;
#X obj 1492 2 cnv 2 10 3 empty empty Port -13 10 0 10 #e0e0e0 #dfdfdf 0;
#X obj 1492 329 cnv 2 10 3 empty empty Send -13 -8 0 10 #e0e0e0 #dfdfdf 0;
#X obj 1194 329 cnv 2 10 3 empty empty Inspector -20 -8 0 10 #e0e0e0 #dfdfdf 0;
#X obj 895 329 cnv 2 10 3 empty empty Counter\ Shuffle -35 -8 0 10 #e0e0e0 #dfdfdf 0;
#X obj 598 329 cnv 2 10 3 empty empty Counter -15 -8 0 10 #e0e0e0 #dfdfdf 0;
#X obj 299 329 cnv 2 10 3 empty empty Pulse -8 -8 0 10 #e0e0e0 #dfdfdf 0;
#X obj 2 329 cnv 2 10 3 empty empty Start 0 -8 0 10 #e0e0e0 #dfdfdf 0;
#X text 1336 518 NOTE! This abstraction needs ELSE externals library;
#X text 1483 560 https://github.com/DSBhproject;
#N canvas 49 235 1748 646 savestate 0;
#X obj 62 169 savestate;
#X obj 122 251 f;
#X obj 140 60 r \$0-knb1-s;
#X obj 65 400 s \$0-knb1-r;
#X obj 157 84 r \$0-knb2-s;
#X obj 193 107 r \$0-knb3-s;
#X obj 229 130 r \$0-knb4-s;
#X obj 265 154 r \$0-knb5-s;
#X obj 301 178 r \$0-knb6-s;
#X obj 337 201 r \$0-knb7-s;
#X obj 373 224 r \$0-knb8-s;
#X obj 429 60 r \$0-vsl1-s;
#X obj 465 84 r \$0-vsl2-s;
#X obj 501 107 r \$0-vsl3-s;
#X obj 537 130 r \$0-vsl4-s;
#X obj 573 154 r \$0-vsl5-s;
#X obj 609 178 r \$0-vsl6-s;
#X obj 645 201 r \$0-vsl7-s;
#X obj 681 224 r \$0-vsl8-s;
#X obj 1210 564 s \$0-tgl8-m-r;
#X obj 1174 541 s \$0-tgl7-m-r;
#X obj 1138 518 s \$0-tgl6-m-r;
#X obj 1102 494 s \$0-tgl5-m-r;
#X obj 1066 470 s \$0-tgl4-m-r;
#X obj 1030 447 s \$0-tgl3-m-r;
#X obj 994 424 s \$0-tgl2-m-r;
#X obj 958 400 s \$0-tgl1-m-r;
#X obj 661 400 s \$0-tgl1-s-r;
#X obj 697 424 s \$0-tgl2-s-r;
#X obj 733 447 s \$0-tgl3-s-r;
#X obj 769 470 s \$0-tgl4-s-r;
#X obj 805 494 s \$0-tgl5-s-r;
#X obj 841 518 s \$0-tgl6-s-r;
#X obj 913 564 s \$0-tgl8-s-r;
#X obj 877 541 s \$0-tgl7-s-r;
#X obj 65 348 unpack f f f f f f f f f f f f f f f f f f f f f f f f f f f f f f f f f f f f f f f f, f 208;
#X obj 102 424 s \$0-knb2-r;
#X obj 138 447 s \$0-knb3-r;
#X obj 174 470 s \$0-knb4-r;
#X obj 210 494 s \$0-knb5-r;
#X obj 246 518 s \$0-knb6-r;
#X obj 282 541 s \$0-knb7-r;
#X obj 318 564 s \$0-knb8-r;
#X obj 363 400 s \$0-vsl1-r;
#X obj 399 424 s \$0-vsl2-r;
#X obj 435 447 s \$0-vsl3-r;
#X obj 471 470 s \$0-vsl4-r;
#X obj 507 494 s \$0-vsl5-r;
#X obj 543 518 s \$0-vsl6-r;
#X obj 579 541 s \$0-vsl7-r;
#X obj 615 564 s \$0-vsl8-r;
#X obj 1259 400 s \$0-tgl1-r-r;
#X obj 1295 424 s \$0-tgl2-r-r;
#X obj 1331 447 s \$0-tgl3-r-r;
#X obj 1367 470 s \$0-tgl4-r-r;
#X obj 1403 494 s \$0-tgl5-r-r;
#X obj 1439 518 s \$0-tgl6-r-r;
#X obj 1475 541 s \$0-tgl7-r-r;
#X obj 1511 564 s \$0-tgl8-r-r;
#X obj 719 60 r \$0-tgl1-s-s;
#X obj 755 84 r \$0-tgl2-s-s;
#X obj 791 107 r \$0-tgl3-s-s;
#X obj 827 130 r \$0-tgl4-s-s;
#X obj 863 154 r \$0-tgl5-s-s;
#X obj 899 178 r \$0-tgl6-s-s;
#X obj 971 224 r \$0-tgl8-s-s;
#X obj 1025 60 r \$0-tgl1-m-s;
#X obj 1061 84 r \$0-tgl2-m-s;
#X obj 1097 107 r \$0-tgl3-m-s;
#X obj 1133 130 r \$0-tgl4-m-s;
#X obj 1169 154 r \$0-tgl5-m-s;
#X obj 1205 178 r \$0-tgl6-m-s;
#X obj 1241 201 r \$0-tgl7-m-s;
#X obj 1277 224 r \$0-tgl8-m-s;
#X obj 1331 60 r \$0-tgl1-r-s;
#X obj 1367 84 r \$0-tgl2-r-s;
#X obj 1439 130 r \$0-tgl4-r-s;
#X obj 1475 154 r \$0-tgl5-r-s;
#X obj 1511 178 r \$0-tgl6-r-s;
#X obj 1547 201 r \$0-tgl7-r-s;
#X obj 1583 224 r \$0-tgl8-r-s;
#X obj 935 201 r \$0-tgl7-s-s;
#X obj 122 275 pack f f f f f f f f f f f f f f f f f f f f f f f f f f f f f f f f f f f f f f f f, f 211;
#X obj 1403 107 r \$0-tgl3-r-s;
#X connect 0 0 35 0;
#X connect 0 1 1 0;
#X connect 1 0 82 0;
#X connect 2 0 1 1;
#X connect 4 0 82 1;
#X connect 5 0 82 2;
#X connect 6 0 82 3;
#X connect 7 0 82 4;
#X connect 8 0 82 5;
#X connect 9 0 82 6;
#X connect 10 0 82 7;
#X connect 11 0 82 8;
#X connect 12 0 82 9;
#X connect 13 0 82 10;
#X connect 14 0 82 11;
#X connect 15 0 82 12;
#X connect 16 0 82 13;
#X connect 17 0 82 14;
#X connect 18 0 82 15;
#X connect 35 0 3 0;
#X connect 35 1 36 0;
#X connect 35 2 37 0;
#X connect 35 3 38 0;
#X connect 35 4 39 0;
#X connect 35 5 40 0;
#X connect 35 6 41 0;
#X connect 35 7 42 0;
#X connect 35 8 43 0;
#X connect 35 9 44 0;
#X connect 35 10 45 0;
#X connect 35 11 46 0;
#X connect 35 12 47 0;
#X connect 35 13 48 0;
#X connect 35 14 49 0;
#X connect 35 15 50 0;
#X connect 35 16 27 0;
#X connect 35 17 28 0;
#X connect 35 18 29 0;
#X connect 35 19 30 0;
#X connect 35 20 31 0;
#X connect 35 21 32 0;
#X connect 35 22 34 0;
#X connect 35 23 33 0;
#X connect 35 24 26 0;
#X connect 35 25 25 0;
#X connect 35 26 24 0;
#X connect 35 27 23 0;
#X connect 35 28 22 0;
#X connect 35 29 21 0;
#X connect 35 30 20 0;
#X connect 35 31 19 0;
#X connect 35 32 51 0;
#X connect 35 33 52 0;
#X connect 35 34 53 0;
#X connect 35 35 54 0;
#X connect 35 36 55 0;
#X connect 35 37 56 0;
#X connect 35 38 57 0;
#X connect 35 39 58 0;
#X connect 59 0 82 16;
#X connect 60 0 82 17;
#X connect 61 0 82 18;
#X connect 62 0 82 19;
#X connect 63 0 82 20;
#X connect 64 0 82 21;
#X connect 65 0 82 23;
#X connect 66 0 82 24;
#X connect 67 0 82 25;
#X connect 68 0 82 26;
#X connect 69 0 82 27;
#X connect 70 0 82 28;
#X connect 71 0 82 29;
#X connect 72 0 82 30;
#X connect 73 0 82 31;
#X connect 74 0 82 32;
#X connect 75 0 82 33;
#X connect 76 0 82 35;
#X connect 77 0 82 36;
#X connect 78 0 82 37;
#X connect 79 0 82 38;
#X connect 80 0 82 39;
#X connect 81 0 82 22;
#X connect 82 0 0 0;
#X connect 83 0 82 34;
#X restore 1532 281 pd savestate;
#X text 690 576 semicorchea_inicial = (número_de_barra - 1) × 16 + 1;
#X text 851 353 // UNASSIGNED BUTTONS The "Loop" \, "Backward" \, and "Forward" buttons are currently unassigned. When pressed \, they flash yellow to indicate their availability for future functionality.;
#X connect 87 0 152 0;
#X connect 87 1 153 0;
#X connect 87 2 154 0;
#X connect 87 3 155 0;
#X connect 87 4 156 0;
#X connect 94 0 96 0;
#X connect 95 0 96 0;
#X connect 96 0 86 0;
#X connect 144 0 150 0;
#X connect 146 0 147 0;
#X connect 147 0 149 0;
#X connect 147 1 148 0;
#X coords 0 -1 1 1 1500 330 1 2 2;
